<svg xmlns="http://www.w3.org/2000/svg" width="1024" height="588" viewBox="0 0 1024 588">
    <g>
    <path d="M 312.44 516.09 C312.22,516.45 312.21,516.68 312.39,516.78 C311.97,516.80 311.52,516.78 310.98,516.72 C310.85,516.49 310.47,516.04 309.94,515.51 C308.39,513.97 306.74,513.54 288.50,510.01 C282.45,508.84 275.92,507.49 274.00,507.01 C269.63,505.92 256.41,503.08 252.78,502.45 C247.22,501.48 244.58,499.79 239.11,493.72 C236.02,490.31 230.66,484.63 227.19,481.10 C223.72,477.58 218.18,471.66 214.88,467.94 C208.05,460.26 206.38,459.38 196.00,458.03 C191.88,457.49 186.02,456.62 183.00,456.10 C169.97,453.87 161.83,452.98 160.71,453.69 C160.08,454.08 168.88,455.92 180.60,457.86 C171.80,456.42 163.88,454.92 158.82,453.77 C159.48,453.26 158.25,452.01 155.62,450.76 C153.76,449.87 148.68,445.85 144.32,441.82 C139.96,437.80 128.41,427.14 118.67,418.15 C101.52,402.33 98.58,398.87 96.85,392.50 C96.75,392.13 96.67,391.84 96.60,391.65 C96.64,386.30 96.86,378.29 97.21,369.92 L 97.48 363.55 C96.90,378.65 97.00,381.29 98.14,380.20 C99.17,379.22 99.56,374.57 99.74,361.24 L 99.98 343.58 L 88.05 325.53 C81.49,315.61 75.20,305.47 74.08,302.99 C70.34,294.75 70.94,292.30 82.62,267.79 C88.46,255.53 93.94,243.65 94.81,241.40 C96.31,237.47 97.18,236.87 115.74,226.90 C126.39,221.18 135.78,215.76 136.62,214.85 C138.30,213.01 139.55,202.68 138.32,200.74 C137.87,200.02 137.12,202.43 136.52,206.50 L 135.50 213.50 L 122.14 220.69 C129.74,216.51 135.38,213.14 135.56,212.64 C135.73,212.18 136.84,204.18 138.28,193.15 C138.10,195.78 138.31,197.00 138.90,197.00 C140.03,197.00 140.09,196.88 140.50,193.50 C141.48,185.56 141.34,182.24 140.10,183.55 C139.81,183.86 139.44,185.13 139.10,186.82 C139.37,184.70 139.65,182.51 139.94,180.28 C140.00,179.79 140.06,179.31 140.12,178.82 C140.06,179.56 140.03,180.13 140.04,180.50 C140.06,182.47 140.08,182.47 141.53,180.56 C142.34,179.49 143.07,177.02 143.16,175.06 C143.24,173.10 143.44,170.38 143.60,169.00 C143.76,167.62 144.11,164.48 144.37,162.00 C145.33,152.92 146.77,148.60 149.73,145.95 C151.33,144.52 158.91,140.83 166.57,137.74 C174.23,134.65 189.50,128.48 200.50,124.03 L 220.50 115.93 L 238.51 97.96 C250.12,86.38 257.25,80.00 258.57,80.00 C259.70,80.00 261.49,79.34 262.56,78.53 C264.31,77.21 264.24,77.07 260.86,77.04 L 267.74 76.37 C267.81,76.37 267.88,76.36 267.95,76.35 C267.48,76.42 267.20,76.48 267.15,76.52 C266.96,76.71 267.11,77.37 267.50,77.99 C267.89,78.64 269.34,78.86 270.88,78.53 C272.36,78.20 275.68,77.89 278.27,77.84 C280.85,77.79 283.76,77.10 284.73,76.32 C286.28,75.06 285.34,74.96 277.00,75.53 C276.68,75.55 276.36,75.58 276.05,75.60 C281.90,75.07 288.63,74.48 293.81,74.04 C291.35,74.37 290.55,74.73 291.26,75.13 C292.16,75.63 296.18,75.77 300.20,75.44 C304.21,75.12 309.98,74.66 313.00,74.43 C324.93,73.54 329.15,73.09 330.98,72.51 C332.43,72.05 335.16,74.04 342.23,80.70 C347.36,85.54 357.37,94.90 364.47,101.50 C371.57,108.10 378.03,114.25 378.83,115.16 C379.91,116.38 380.24,119.08 380.08,125.41 C379.95,130.93 380.26,134.00 380.94,134.00 C381.68,134.00 382.00,155.28 382.00,204.00 C382.00,242.50 382.23,274.00 382.50,274.00 C382.74,274.00 382.95,245.80 382.99,208.92 L 382.99 288.10 C382.98,397.95 382.80,443.41 382.21,457.66 C382.05,457.81 381.88,457.98 381.67,458.18 C380.75,459.10 380.00,460.36 380.00,460.97 C380.00,462.40 378.02,464.29 363.46,476.68 C343.38,493.77 320.11,512.06 316.53,513.55 C314.66,514.33 312.82,515.47 312.44,516.09 ZM 290.00 492.85 C300.17,494.98 309.40,496.52 310.50,496.27 C313.30,495.65 315.67,493.90 340.35,474.12 C352.36,464.50 362.59,455.57 363.08,454.29 C363.58,452.98 363.94,387.74 363.90,304.23 C363.85,173.82 363.66,156.30 362.33,154.82 C361.49,153.89 360.20,153.37 359.45,153.66 C358.21,154.13 346.90,170.41 344.14,175.68 C343.51,176.89 343.00,180.08 343.00,182.79 C343.00,189.36 340.01,193.70 332.98,197.33 C328.69,199.55 327.12,199.93 325.76,199.08 C324.81,198.49 323.35,198.00 322.52,198.00 C320.02,198.00 313.19,191.12 311.95,187.36 C309.07,178.61 314.99,167.92 323.51,166.53 C325.70,166.17 328.46,165.48 329.64,165.01 C330.82,164.53 336.17,157.47 341.53,149.32 C356.40,126.72 359.00,122.43 359.00,120.52 C359.00,118.92 352.67,112.56 335.26,96.69 C330.63,92.47 328.26,91.00 326.07,91.00 C324.45,91.00 322.84,91.45 322.50,92.00 C322.15,92.57 322.99,93.00 324.45,93.00 C324.52,93.00 324.60,93.01 324.69,93.02 L 322.14 93.33 C321.78,93.37 321.20,93.43 320.44,93.51 C320.57,93.29 320.38,92.96 320.00,92.50 C318.15,90.28 311.00,90.76 311.00,93.11 C311.00,93.56 312.96,93.94 315.47,93.99 C309.55,94.55 300.63,95.35 291.50,96.15 L 290.19 96.26 C300.77,95.31 309.00,94.27 309.00,93.86 C309.00,92.58 304.25,91.70 301.23,92.43 C298.09,93.18 287.04,94.27 275.00,95.01 C265.73,95.58 264.18,96.61 246.50,113.99 C233.30,126.96 228.42,131.12 224.67,132.60 C222.01,133.64 211.66,137.88 201.67,142.00 C186.39,148.31 183.45,149.86 183.18,151.73 C182.80,154.44 183.24,154.65 206.94,163.38 C220.68,168.44 224.88,169.62 226.75,168.91 C230.41,167.51 259.71,141.20 260.38,138.71 C260.71,137.49 260.98,135.44 260.99,134.15 C261.01,130.14 264.16,124.90 268.42,121.79 C272.08,119.12 273.10,118.86 278.39,119.23 C283.87,119.62 284.57,119.96 288.64,124.27 C292.77,128.65 293.00,129.19 293.00,134.79 C293.00,144.74 287.59,150.35 276.63,151.77 C271.10,152.49 270.70,152.77 252.23,169.11 C231.75,187.22 228.17,189.70 224.96,187.98 C223.85,187.38 215.41,184.27 206.22,181.05 C197.02,177.84 184.42,173.37 178.20,171.11 C162.68,165.46 161.66,165.60 160.36,173.50 C160.18,174.60 159.77,176.62 159.46,178.00 C159.12,179.45 159.48,181.31 160.31,182.43 C160.96,183.30 161.33,183.60 161.62,182.81 C161.39,184.57 161.15,186.44 160.90,188.38 C160.91,186.78 160.61,186.00 160.00,186.00 C159.45,186.00 159.00,186.88 159.00,187.95 C159.00,189.03 158.48,191.04 157.85,192.42 C156.95,194.41 157.00,195.30 158.10,196.62 C159.25,198.01 159.53,197.94 160.05,195.20 L 158.66 206.26 C159.04,202.55 158.91,200.94 158.26,201.34 C157.28,201.95 156.96,203.02 155.40,210.91 C154.74,214.25 155.02,214.59 171.29,230.41 C180.40,239.26 188.36,247.53 188.98,248.79 C191.40,253.69 188.35,257.65 175.50,266.28 C165.42,273.06 165.39,273.09 163.99,278.14 C162.70,282.81 156.27,288.67 151.46,289.57 C143.57,291.05 133.81,284.85 132.43,277.46 C131.03,269.99 133.37,264.36 139.70,260.01 C142.35,258.19 144.22,257.83 150.66,257.89 C157.45,257.96 158.90,257.65 162.14,255.40 C168.93,250.70 168.51,249.39 156.78,238.60 C151.19,233.46 147.73,231.00 146.08,231.00 C144.73,231.00 137.98,234.10 131.07,237.89 C124.16,241.68 116.68,245.69 114.45,246.80 C109.98,249.04 108.54,251.61 95.45,280.51 L 88.85 295.07 L 91.36 299.28 C92.74,301.60 97.61,309.12 102.19,316.00 L 110.50 328.50 L 118.50 332.46 C122.90,334.64 138.20,341.93 152.50,348.67 C166.80,355.41 179.44,360.94 180.58,360.96 C183.48,361.02 227.81,323.62 228.60,320.45 C229.02,318.79 228.30,316.57 226.30,313.28 C220.42,303.60 218.72,298.15 218.22,287.44 C217.67,275.55 218.80,269.42 223.24,260.29 C229.91,246.56 246.75,233.42 260.20,231.47 C262.79,231.09 265.72,230.17 266.70,229.43 C267.82,228.58 268.14,228.25 267.42,228.12 C268.80,228.05 270.21,228.01 271.64,228.01 C273.08,228.01 274.66,228.07 276.23,228.17 C276.15,228.18 276.08,228.19 276.00,228.21 L 273.50 228.62 L 276.00 229.72 C277.38,230.33 281.64,231.55 285.48,232.43 C289.32,233.31 294.89,235.49 297.86,237.27 C304.45,241.21 314.13,250.66 317.54,256.48 C321.03,262.43 325.00,272.84 324.39,274.43 C324.11,275.15 324.62,276.48 325.51,277.37 C326.41,278.27 327.27,279.00 327.43,279.00 C327.48,279.00 327.49,278.80 327.47,278.44 C327.82,281.81 327.86,285.23 327.55,288.66 C327.53,288.35 327.47,288.14 327.37,288.04 C326.37,287.04 324.00,291.37 324.14,293.94 C324.49,299.92 317.55,313.25 310.13,320.86 C301.70,329.53 287.38,337.00 279.22,337.00 C277.66,337.00 275.51,337.66 274.44,338.47 C273.04,339.52 272.83,339.83 274.67,339.92 C273.21,339.91 271.53,339.86 269.52,339.78 C269.35,339.77 269.18,339.76 269.01,339.76 C271.23,339.32 267.92,337.76 260.77,336.52 C256.68,335.81 251.93,334.50 250.22,333.61 C244.14,330.47 243.45,330.87 218.80,351.70 C205.99,362.53 193.05,373.56 190.05,376.20 C187.05,378.84 183.99,381.00 183.23,381.00 C182.48,381.00 178.64,379.48 174.68,377.61 C170.73,375.75 157.42,369.45 145.09,363.61 C132.77,357.78 121.91,353.00 120.97,353.00 C117.93,353.00 117.05,355.45 116.37,365.76 C115.81,374.38 115.95,376.09 117.35,377.50 C118.07,378.21 118.48,378.45 118.73,377.46 C118.67,380.25 118.61,383.26 118.57,386.50 L 118.50 391.33 C118.08,390.91 117.83,390.65 117.77,390.56 C117.35,389.96 117.02,390.46 117.02,391.70 C117.00,393.78 130.56,407.12 154.10,428.18 C162.31,435.52 162.92,435.76 181.00,438.48 C186.77,439.35 193.52,440.47 196.00,440.96 C211.10,443.96 215.87,444.31 218.43,442.63 C219.81,441.73 225.21,434.81 230.45,427.25 C247.45,402.68 251.47,397.52 253.85,397.17 C255.08,397.00 265.94,399.36 277.97,402.42 C290.00,405.49 301.02,408.00 302.46,408.00 C303.90,408.00 306.39,407.04 307.98,405.86 C310.12,404.27 312.32,403.71 316.42,403.71 C326.73,403.71 333.72,411.11 332.77,421.01 C332.17,427.33 328.94,431.58 322.42,434.67 C317.13,437.17 317.04,437.18 312.53,435.46 C310.03,434.50 306.44,432.02 304.56,429.93 C300.40,425.33 299.15,424.67 291.50,423.08 C288.20,422.40 282.35,420.91 278.51,419.77 C267.85,416.62 260.82,415.13 259.33,415.70 C258.03,416.20 239.43,442.33 232.98,452.72 C229.96,457.58 229.84,458.10 231.25,460.22 C233.58,463.74 252.99,483.93 255.15,485.08 C256.21,485.65 260.32,486.76 264.29,487.55 C268.25,488.34 279.83,490.73 290.00,492.85 ZM 534.91 386.05 C528.57,384.89 524.03,382.27 519.42,377.10 C515.84,373.08 515.46,372.10 514.98,365.71 C514.36,357.35 515.63,353.01 520.05,348.45 C520.89,347.58 521.86,346.78 523.02,346.02 C523.01,346.08 523.00,346.14 523.00,346.19 C523.00,347.50 525.27,346.68 525.77,345.19 C525.88,344.87 525.85,344.64 525.70,344.53 C530.25,342.33 537.13,340.41 548.50,337.99 C563.81,334.72 572.14,332.25 573.15,330.71 C574.08,329.27 570.88,323.98 568.14,322.32 C569.98,322.69 570.33,322.35 569.54,321.07 C568.73,319.76 566.00,319.65 566.00,320.93 C566.00,321.18 566.20,321.46 566.51,321.69 C562.45,320.70 554.35,321.54 551.37,323.49 C550.72,323.92 549.97,324.57 549.28,325.28 C550.43,323.82 550.36,323.39 549.30,323.15 C547.53,322.76 546.04,324.64 546.02,327.31 C546.00,328.62 546.37,328.60 547.88,326.93 C547.65,327.25 547.44,327.55 547.28,327.84 L 545.75 330.50 L 531.38 329.07 C521.99,328.14 518.08,327.84 517.28,326.10 C516.69,324.80 517.84,322.70 519.75,318.94 C520.47,317.52 521.30,316.20 522.25,314.96 C522.46,315.66 525.12,314.35 527.34,312.00 C528.90,310.35 530.76,309.00 531.47,309.00 C532.19,309.00 533.84,308.09 535.14,306.97 L 537.21 305.19 C539.26,304.65 543.01,304.23 547.50,303.93 C547.51,304.09 547.56,304.28 547.64,304.50 C547.95,305.33 548.42,306.00 548.68,306.00 C548.93,306.00 549.82,305.33 550.64,304.50 C550.97,304.17 551.21,303.92 551.35,303.71 C556.61,303.47 562.44,303.39 567.64,303.50 C567.62,303.72 567.83,304.03 568.21,304.46 C569.88,306.36 571.45,306.37 573.00,304.50 C573.27,304.18 573.45,303.92 573.52,303.72 C575.87,303.86 577.91,304.05 579.47,304.31 C584.02,305.05 589.35,307.45 593.12,310.25 C592.23,309.97 591.94,310.69 592.58,312.36 C592.93,313.26 594.17,314.00 595.33,314.00 L 596.95 314.00 C601.75,320.43 602.30,324.32 602.96,352.00 C603.36,369.13 604.01,379.50 604.79,381.32 C605.46,382.86 606.00,384.33 606.00,384.57 C606.00,384.80 599.76,385.00 592.12,385.00 C576.83,385.00 575.62,384.55 575.78,378.97 C575.83,377.33 575.44,376.00 574.91,376.00 C574.38,376.00 571.67,377.57 568.88,379.49 C566.09,381.41 561.49,383.67 558.65,384.52 C552.24,386.43 540.97,387.16 534.91,386.05 ZM 786.00 385.90 C778.46,384.75 771.95,381.90 766.71,377.60 C766.74,377.30 766.64,376.72 766.47,375.86 C765.96,373.20 765.79,373.04 762.97,372.49 C762.21,372.35 761.71,372.26 761.50,372.33 C757.12,366.88 754.18,360.01 752.93,352.00 C750.25,334.74 756.81,319.18 769.55,310.57 C769.28,310.83 769.23,311.00 769.47,311.00 C771.47,311.00 779.00,307.69 779.00,306.80 C779.00,306.34 778.48,306.22 777.61,306.39 C778.31,306.12 779.03,305.87 779.76,305.64 C782.66,304.71 789.86,303.68 795.76,303.34 C798.84,303.16 801.78,303.15 804.59,303.30 C804.47,303.52 804.70,303.88 805.21,304.46 C806.87,306.35 807.65,306.36 808.36,304.50 C808.50,304.14 808.53,303.85 808.45,303.63 C830.70,306.15 843.37,319.81 844.76,343.25 L 845.28 352.00 L 785.16 352.00 C785.37,351.85 785.59,351.74 785.81,351.68 C787.04,351.35 786.90,351.20 785.31,351.12 C782.67,350.98 781.55,352.49 782.59,354.80 C783.25,356.27 783.40,356.20 783.74,354.31 C783.79,354.03 783.88,353.74 784.00,353.47 L 784.00 354.54 C784.00,358.63 787.63,364.58 791.51,366.88 C793.89,368.28 796.81,369.00 800.12,369.00 C804.51,369.00 805.59,368.56 808.82,365.45 L 812.50 361.89 L 821.00 362.46 C825.22,362.75 828.75,363.00 831.67,363.24 C831.42,363.44 831.64,363.81 832.21,364.46 C833.02,365.38 833.35,365.83 833.67,365.82 C833.98,365.82 834.28,365.37 835.00,364.50 C835.34,364.10 835.54,363.80 835.59,363.58 C837.76,363.78 839.41,363.97 840.59,364.15 C840.21,364.28 839.94,364.50 839.92,364.75 C839.87,365.16 839.72,366.56 839.58,367.87 L 839.32 370.23 L 841.10 367.91 C840.54,368.71 839.90,369.59 839.21,370.50 C839.04,370.73 838.86,370.96 838.68,371.18 L 837.05 371.78 C835.74,372.27 834.56,373.42 834.42,374.33 C834.32,375.04 834.26,375.52 834.33,375.73 C829.69,379.84 823.91,383.10 818.50,384.49 C810.83,386.47 794.38,387.18 786.00,385.90 ZM 416.49 382.75 C416.19,381.51 416.07,356.65 416.22,327.50 L 416.50 274.50 L 429.16 274.30 C425.43,274.42 423.57,274.58 424.75,274.72 C426.54,274.95 428.00,275.55 428.00,276.06 C428.00,276.58 432.45,277.00 438.00,277.00 C447.33,277.00 448.00,277.13 448.00,279.00 C448.00,280.10 448.56,281.04 449.25,281.08 C450.25,281.14 450.25,281.26 449.25,281.66 C447.77,282.26 447.55,288.00 449.00,288.00 C449.55,288.00 450.00,288.67 450.00,289.50 C450.00,290.33 449.55,291.00 449.00,291.00 C448.45,291.00 448.00,292.80 448.00,295.00 C448.00,297.20 448.46,299.00 449.03,299.00 C449.71,299.00 450.04,308.53 450.00,327.25 C449.97,342.79 449.96,356.06 449.97,356.75 C449.99,357.44 450.23,358.00 450.50,358.00 C450.77,358.00 451.00,339.10 451.00,316.00 L 451.00 358.00 L 504.00 358.00 L 504.00 385.00 L 417.04 385.00 ZM 264.28 323.47 C267.70,324.20 271.40,324.64 272.50,324.44 C281.88,322.80 286.11,321.52 291.22,318.80 C301.63,313.25 308.66,302.98 311.10,289.76 C312.14,284.11 312.08,282.15 310.67,276.45 C307.42,263.27 301.16,254.48 291.32,249.27 C283.00,244.87 277.94,243.63 276.05,245.52 C275.45,246.12 275.16,246.49 275.28,246.70 C274.19,246.66 272.96,246.65 271.52,246.66 C270.04,246.67 268.58,246.75 267.15,246.90 C267.83,246.75 267.72,246.37 267.04,245.54 C265.50,243.69 261.35,244.41 254.04,247.81 C236.33,256.04 226.84,277.63 233.08,295.53 C238.56,311.30 248.36,320.07 264.28,323.47 ZM 882.62 385.93 C874.86,384.86 868.33,382.29 863.63,378.58 C863.65,378.17 863.65,377.50 863.61,376.75 C863.53,375.15 862.78,374.40 861.00,374.15 L 859.12 373.89 C858.61,373.19 858.16,372.45 857.75,371.69 C855.65,367.74 854.39,365.66 854.96,364.45 C855.67,362.95 859.17,362.79 867.37,362.06 C874.59,361.42 881.43,360.70 882.58,360.47 C884.15,360.15 885.05,360.87 886.29,363.48 C888.60,368.33 892.96,370.32 900.15,369.80 C906.96,369.30 911.00,366.38 911.00,361.94 C911.00,360.00 909.94,358.62 906.74,357.31 C906.74,357.31 906.75,357.31 906.75,357.31 C909.92,358.14 910.26,358.02 909.00,356.50 C907.63,354.84 905.00,354.47 905.00,355.93 C905.00,356.29 905.40,356.71 905.98,357.01 C902.96,355.90 898.32,354.83 891.37,353.49 C884.40,352.16 876.61,350.37 874.07,349.52 C869.89,348.14 866.44,345.92 863.78,343.18 C864.91,343.96 865.36,343.38 864.65,341.54 C864.33,340.69 863.30,340.00 862.38,340.00 C861.80,340.00 861.44,340.02 861.30,340.15 C855.41,331.56 856.04,319.74 864.91,311.77 C865.45,311.29 865.98,310.83 866.52,310.40 C866.25,310.73 866.22,310.93 866.50,310.95 C867.92,311.03 876.00,306.65 876.00,305.80 C876.00,305.67 875.90,305.60 875.71,305.59 C879.98,304.34 885.43,303.73 893.41,303.35 C897.65,303.15 901.39,303.11 904.74,303.25 C904.44,303.46 904.65,303.82 905.21,304.46 C906.83,306.30 906.84,306.30 908.64,304.50 C909.04,304.10 909.31,303.80 909.41,303.59 C918.29,304.55 924.00,307.21 928.89,312.17 C932.49,315.82 936.50,322.84 935.53,323.80 C935.49,323.84 935.35,323.89 935.13,323.95 C935.70,323.20 935.53,322.02 934.64,320.38 C933.20,317.72 933.08,317.67 933.04,319.75 C933.02,320.99 933.03,322.32 933.07,322.71 C933.11,323.10 932.33,323.75 931.32,324.14 C930.45,324.49 930.03,324.67 930.10,324.77 C923.54,325.68 912.96,326.84 909.41,326.94 C908.11,326.98 906.88,326.04 906.16,324.45 C904.76,321.39 899.51,319.00 894.17,319.00 C891.02,319.00 888.39,320.21 886.78,321.88 C887.07,321.56 887.38,321.27 887.70,321.02 C890.13,319.11 890.16,319.00 888.16,319.00 C885.44,319.00 882.70,323.08 883.72,325.61 C884.42,327.35 884.51,327.33 884.81,325.27 C884.92,324.53 885.43,323.55 886.13,322.64 C884.48,324.88 884.55,327.66 887.31,329.47 C888.59,330.30 895.86,331.92 903.48,333.07 C911.09,334.21 919.80,336.08 922.82,337.21 C925.65,338.26 928.15,339.70 930.29,341.42 C929.05,340.95 928.55,341.75 929.98,343.48 C930.68,344.31 931.96,345.00 932.84,345.00 C933.34,345.00 933.63,344.94 933.69,344.75 C939.40,351.58 940.77,361.06 936.39,369.84 C931.12,380.41 919.90,385.70 901.04,386.47 C901.06,386.42 900.96,386.37 900.75,386.31 C899.79,386.06 899.00,385.44 899.00,384.93 C899.00,384.42 898.33,384.00 897.50,384.00 C896.67,384.00 896.00,384.42 896.00,384.93 C896.00,385.44 895.21,386.06 894.25,386.31 C893.90,386.40 893.87,386.49 894.11,386.56 C889.62,386.51 885.16,386.29 882.62,385.93 ZM 642.73 386.03 C640.11,385.55 636.51,384.31 634.73,383.28 C633.96,382.82 633.12,382.16 632.29,381.40 C632.55,381.44 632.72,381.33 632.82,381.05 C633.27,379.68 629.40,375.27 628.51,376.15 C628.37,376.29 628.47,376.70 628.73,377.26 C627.74,375.79 627.19,374.50 627.52,373.96 C627.79,373.53 627.61,373.02 627.11,372.84 C625.60,372.28 625.08,365.39 625.04,345.75 L 625.00 327.00 L 613.00 327.00 L 613.00 305.00 L 625.00 305.00 L 625.05 289.50 L 639.11 282.50 C640.64,281.74 642.13,281.00 643.54,280.30 C642.04,281.15 641.00,281.86 641.00,282.14 C641.00,283.00 653.00,278.40 654.39,277.01 C654.44,276.96 654.48,276.92 654.52,276.87 C654.84,279.31 655.12,284.11 655.22,289.68 L 655.50 304.50 L 672.00 305.08 L 672.00 327.00 L 655.00 327.00 L 655.00 341.88 C655.00,350.06 655.29,358.20 655.64,359.96 C656.51,364.32 659.63,365.66 665.93,364.39 L 668.38 365.87 C669.82,366.75 671.00,367.88 671.00,368.40 C671.00,368.91 671.25,369.09 671.55,368.78 C671.74,368.59 671.80,367.97 671.73,367.20 C672.03,369.08 672.23,371.91 672.57,376.10 L 673.25 384.69 L 668.40 385.36 C659.42,386.59 647.53,386.90 642.73,386.03 ZM 711.90 386.05 C707.31,385.21 704.09,383.97 701.51,381.80 C701.64,381.65 701.67,381.20 701.67,380.50 C701.67,378.86 698.29,375.38 697.48,376.19 C697.34,376.32 697.44,376.74 697.72,377.30 C697.28,376.59 696.84,375.82 696.41,375.00 C694.84,371.99 694.53,368.36 694.18,349.25 L 693.78 327.00 L 682.00 327.00 L 682.00 305.00 L 694.00 305.00 L 694.09 289.50 L 708.11 282.50 C710.20,281.46 712.21,280.46 714.05,279.55 C711.78,280.80 710.00,281.94 710.00,282.30 C710.00,282.78 710.34,282.99 710.75,282.78 C714.60,280.80 719.62,278.83 721.12,278.72 C722.07,278.64 723.04,277.87 723.54,277.04 C723.86,279.50 724.12,284.16 724.22,289.68 L 724.50 304.50 L 741.00 305.08 L 741.00 327.00 L 724.00 327.00 L 724.00 341.88 C724.00,350.06 724.29,358.20 724.64,359.96 C725.52,364.34 728.65,365.67 734.99,364.37 C735.35,364.30 735.68,364.23 736.00,364.16 C735.51,364.45 735.85,364.88 736.85,365.94 C737.76,366.90 738.84,367.50 739.25,367.28 C739.66,367.06 740.00,367.43 740.00,368.11 C740.00,368.78 740.25,369.09 740.55,368.78 C740.74,368.59 740.80,367.97 740.73,367.20 C741.03,369.08 741.23,371.91 741.57,376.10 L 742.25 384.69 L 737.40 385.36 C728.51,386.58 716.55,386.90 711.90,386.05 ZM 417.64 264.25 C416.83,259.32 416.84,203.61 417.66,198.66 L 418.29 194.83 L 438.39 195.16 C441.71,195.22 444.49,195.27 446.83,195.32 C446.53,195.54 446.71,195.89 447.21,196.46 C448.91,198.38 453.63,198.41 454.36,196.50 C454.50,196.13 454.53,195.85 454.38,195.63 C456.92,195.81 458.49,196.08 459.80,196.51 C459.46,196.56 459.41,196.91 459.66,197.55 C459.96,198.35 460.62,199.00 461.11,199.00 C462.26,199.00 462.22,197.89 461.36,197.14 C461.88,197.39 462.41,197.67 463.00,198.00 C463.22,198.12 463.43,198.24 463.64,198.37 C463.47,198.32 463.34,198.32 463.28,198.38 C462.47,199.19 464.08,201.09 466.35,202.01 C467.34,202.40 468.04,202.66 468.45,202.76 C472.71,208.34 474.10,216.38 472.52,223.45 C472.35,223.37 472.07,223.42 471.67,223.57 C470.18,224.14 468.84,228.50 469.84,229.50 C469.95,229.62 470.07,229.66 470.20,229.63 C468.75,232.23 466.76,234.46 464.23,236.07 C459.32,239.18 456.26,239.78 442.00,240.44 L 439.74 240.54 C439.81,240.48 439.65,240.41 439.25,240.32 C438.01,240.07 437.00,239.44 437.00,238.93 C437.00,237.55 434.41,237.81 433.15,239.31 C432.32,240.32 432.94,240.62 436.32,240.70 L 432.50 240.87 L 432.22 254.44 L 431.94 268.00 L 418.26 268.00 ZM 709.70 267.61 C700.39,264.16 694.64,258.09 693.45,250.43 C691.96,240.87 691.77,235.00 692.94,235.00 C693.59,235.00 693.85,234.57 693.53,234.04 C692.57,232.50 695.84,225.77 699.30,222.16 C702.83,218.49 705.88,216.43 710.00,215.39 C708.55,215.89 707.09,216.48 706.04,217.04 C703.22,218.53 702.93,218.92 704.63,218.96 C705.80,218.98 708.33,218.34 710.25,217.54 C712.17,216.74 713.92,216.24 714.12,216.44 C714.33,216.64 715.14,216.10 715.92,215.26 C716.19,214.97 716.38,214.74 716.50,214.56 C717.29,214.53 718.13,214.51 719.00,214.51 C720.58,214.51 721.90,214.52 723.04,214.57 C723.42,214.91 724.70,215.60 727.00,216.81 C732.09,219.49 736.00,220.66 736.00,219.52 C736.00,219.50 736.00,219.49 735.99,219.47 C743.26,224.77 746.41,232.47 745.82,243.29 C745.74,244.58 745.60,245.93 745.41,247.25 C745.18,247.24 744.81,247.56 744.29,248.23 C743.18,249.64 741.00,255.70 741.00,257.37 C741.00,257.90 741.25,257.85 741.64,257.41 C738.90,261.17 734.76,264.89 731.15,266.64 C726.40,268.95 714.75,269.48 709.70,267.61 ZM 796.05 241.50 L 796.16 217.09 C796.59,217.76 797.95,218.00 800.89,218.00 C805.28,218.00 805.85,218.26 806.41,220.50 C807.13,223.37 810.43,223.93 811.42,221.36 C811.94,219.99 811.80,219.92 810.52,220.98 C810.39,221.09 810.26,221.19 810.15,221.27 L 811.75 219.74 C812.46,219.06 813.26,218.42 814.11,217.84 C813.58,218.33 813.36,218.77 813.56,219.10 C814.16,220.06 816.19,219.08 821.50,215.25 C822.17,214.77 822.61,214.45 822.78,214.27 C823.79,214.09 824.79,214.00 825.76,214.00 C826.39,214.00 827.07,214.06 827.77,214.18 C827.57,214.45 828.44,215.25 830.50,216.53 C833.62,218.45 834.45,219.03 834.90,218.81 C835.12,218.70 835.25,218.40 835.51,217.98 C835.69,217.69 835.43,217.26 834.88,216.79 C836.53,217.75 837.92,218.87 838.71,219.99 C839.02,220.43 839.26,220.78 839.49,221.03 C839.36,220.95 839.24,220.85 839.10,220.75 C837.68,219.64 837.66,219.70 838.87,221.25 C840.71,223.60 842.55,223.45 845.21,220.75 C846.43,219.51 849.02,217.47 850.96,216.20 C852.51,215.20 853.27,214.65 853.33,214.44 C855.25,214.17 857.30,214.18 859.53,214.46 C865.51,215.21 869.00,217.46 871.65,222.27 C872.50,223.81 872.97,225.65 873.28,230.14 C873.08,229.91 872.82,230.04 872.50,230.36 C870.50,232.36 870.28,264.27 872.25,266.50 C872.94,267.29 873.61,267.94 873.75,267.96 C873.84,267.98 873.93,263.83 873.97,257.73 L 874.14 268.00 L 860.15 268.00 L 859.83 248.60 C859.59,234.37 859.39,230.30 858.39,228.25 C858.77,228.91 859.05,229.66 859.24,230.50 C859.64,232.29 859.77,232.32 860.44,230.79 C861.46,228.44 857.72,223.37 854.52,222.76 C853.13,222.49 852.00,222.61 852.00,223.01 C852.00,223.41 850.28,224.02 848.18,224.36 C844.31,224.97 843.26,226.14 841.05,232.25 C840.25,234.46 840.34,235.00 841.52,235.00 C842.34,235.00 843.00,234.13 843.00,233.08 C843.00,232.33 843.57,231.00 844.41,229.69 C842.46,233.21 842.00,238.67 842.00,252.24 L 842.00 268.00 L 828.00 268.00 L 828.00 248.50 C828.00,230.33 827.86,228.86 826.00,227.00 C825.23,226.23 824.23,225.68 823.12,225.34 C826.24,225.34 827.21,224.40 824.51,223.37 C822.23,222.49 813.37,224.94 811.55,226.94 C810.67,227.92 809.53,230.14 809.04,231.86 C808.33,234.34 808.44,235.00 809.57,235.00 C810.36,235.00 811.00,234.13 811.00,233.08 C811.00,232.37 811.54,231.11 812.33,229.84 C810.45,233.36 810.00,238.86 810.00,252.24 L 810.00 268.00 L 795.93 268.00 ZM 518.01 266.73 C510.97,263.00 509.24,258.22 511.24,248.00 C511.85,244.91 513.78,242.54 517.51,240.60 C517.45,240.77 517.46,240.93 517.55,241.07 C517.89,241.63 518.93,241.57 520.15,240.92 C521.97,239.94 522.07,239.15 520.88,239.14 C523.59,238.15 526.93,237.28 531.00,236.47 C542.07,234.27 543.35,233.57 542.53,230.17 C541.61,226.35 539.31,225.00 533.71,225.00 C529.55,225.00 528.38,225.46 526.00,228.00 C525.18,228.87 524.56,229.49 523.95,229.91 C524.30,229.28 524.10,228.53 523.20,228.23 C522.67,228.06 521.97,228.64 521.63,229.53 C521.43,230.04 521.38,230.40 521.50,230.62 C520.77,230.63 519.88,230.53 518.72,230.37 C512.68,229.55 511.75,228.84 512.54,225.68 C513.24,222.89 515.72,220.15 519.02,218.03 C519.01,218.07 519.00,218.12 519.00,218.16 C519.00,219.47 520.83,219.15 523.53,217.39 C524.88,216.50 526.55,216.00 527.25,216.26 C527.94,216.53 529.15,216.07 529.93,215.23 C530.58,214.53 530.83,214.17 530.44,214.07 C530.96,214.03 531.48,214.01 532.00,214.01 C537.67,214.00 545.54,215.66 549.91,217.56 C549.31,217.90 549.86,219.80 551.77,222.33 C553.27,224.31 554.87,225.94 555.32,225.96 C555.46,225.97 555.57,225.93 555.64,225.85 C555.98,227.50 556.22,229.41 556.37,231.64 C556.16,231.48 555.87,231.50 555.50,231.64 C553.64,232.35 553.43,239.60 555.25,240.34 C555.77,240.55 556.28,240.75 556.56,240.85 C556.54,241.90 556.51,242.99 556.48,244.12 C556.19,253.16 556.34,256.47 557.71,262.20 C557.56,262.26 557.34,262.50 557.08,262.91 C556.59,263.68 556.42,264.92 556.70,265.66 C556.98,266.40 557.66,267.00 558.21,267.00 C558.55,267.00 558.75,266.73 558.77,266.33 L 559.22 268.00 L 552.61 268.00 C546.63,268.00 546.00,267.81 546.00,265.97 C546.00,263.26 543.35,262.37 541.18,264.34 C535.67,269.32 525.00,270.42 518.01,266.73 ZM 609.79 267.22 C602.05,263.62 598.81,253.86 602.75,246.03 C602.98,245.58 603.22,245.15 603.48,244.75 C603.55,244.89 603.75,244.96 604.10,244.97 C605.84,245.00 609.65,241.32 608.78,240.44 C608.76,240.42 608.73,240.41 608.70,240.40 C609.11,240.20 609.55,240.01 610.01,239.82 C610.00,239.88 610.00,239.94 610.00,240.00 C610.00,241.59 612.63,241.16 614.13,239.31 C614.55,238.79 614.82,238.43 614.92,238.22 C616.93,237.67 619.28,237.10 622.05,236.49 C628.31,235.10 633.80,233.60 634.25,233.15 C635.46,231.94 633.40,227.29 631.11,226.06 C630.68,225.83 629.94,225.61 629.05,225.44 C632.44,225.65 632.60,225.41 631.18,224.42 C628.61,222.61 622.13,222.84 619.00,224.84 C617.62,225.72 616.16,226.34 615.75,226.22 C615.34,226.10 615.00,226.70 615.00,227.56 C615.00,228.42 614.56,228.84 614.01,228.51 C613.45,228.16 613.28,228.56 613.62,229.44 C614.09,230.68 614.79,230.36 617.13,227.86 C619.31,225.53 619.99,224.94 623.08,225.03 C620.22,225.16 619.03,225.82 616.95,228.06 C614.12,231.08 614.03,231.11 608.38,230.06 C607.84,229.96 607.31,229.86 606.80,229.75 C606.93,229.69 606.79,229.55 606.25,229.34 C605.56,229.06 605.00,228.22 605.00,227.48 C605.00,226.73 604.48,225.80 603.85,225.40 C603.62,225.27 603.45,225.19 603.34,225.17 C604.07,224.00 605.06,222.68 606.13,221.43 C606.82,221.99 610.06,220.01 610.66,218.44 C610.96,217.65 611.56,217.23 611.99,217.49 C612.42,217.76 613.34,217.30 614.03,216.47 C614.39,216.03 614.61,215.73 614.69,215.55 C618.49,214.64 623.76,214.30 628.62,214.51 C628.77,214.67 629.07,214.88 629.50,215.15 C630.60,215.85 631.95,216.47 632.50,216.52 C637.95,217.01 641.50,219.44 644.58,224.79 C645.48,226.35 646.13,227.08 646.49,227.15 C646.89,230.27 647.00,234.41 647.00,240.11 C647.00,252.36 647.67,260.28 649.10,264.99 C648.77,263.95 648.37,262.36 648.06,260.77 L 647.22 256.50 L 647.11 261.08 C647.05,263.60 647.30,265.97 647.67,266.33 C648.47,267.13 649.53,267.17 649.67,266.64 C649.98,267.85 648.90,268.00 643.11,268.00 C636.74,268.00 636.00,267.80 636.00,266.06 C636.00,263.33 634.18,262.52 632.15,264.36 C627.07,268.97 616.46,270.32 609.79,267.22 ZM 893.45 267.59 C888.61,265.48 885.49,261.14 884.54,256.40 C884.79,256.33 885.14,256.00 885.66,255.48 C886.69,254.45 886.94,253.57 886.31,253.16 C885.76,252.80 885.04,251.82 884.73,251.00 C884.64,250.77 884.56,250.69 884.48,250.73 C884.90,248.35 885.92,246.06 887.58,244.09 C888.02,243.56 888.49,243.08 889.01,242.62 C889.19,243.57 892.02,242.84 893.43,241.43 C894.65,240.21 895.12,239.54 894.82,239.42 C897.71,238.35 901.64,237.31 907.25,236.04 C916.29,234.00 917.00,233.66 917.00,231.42 C917.00,230.01 916.60,228.81 915.83,227.83 L 917.16 229.16 L 916.83 226.83 C916.59,225.13 915.41,224.12 912.49,223.11 C908.84,221.85 908.08,221.91 903.99,223.79 C899.94,225.64 895.00,229.35 895.00,230.54 C895.00,230.59 895.00,230.63 895.01,230.68 L 892.29 230.13 C889.20,229.51 886.48,228.81 886.24,228.58 C885.00,227.33 887.94,222.60 891.50,219.20 C891.77,219.80 895.21,218.93 896.75,217.73 C897.44,217.20 898.00,216.35 898.00,215.85 C898.00,215.31 896.42,215.81 894.82,216.60 C895.00,216.49 895.19,216.39 895.37,216.30 C900.18,213.78 918.55,213.97 922.99,216.57 C928.10,219.56 929.68,220.98 930.40,230.11 C930.19,229.81 929.89,229.96 929.50,230.36 C927.53,232.32 927.33,253.32 929.25,255.50 C929.94,256.29 930.61,256.94 930.75,256.96 C930.88,256.98 930.98,251.48 931.00,244.45 C931.41,259.30 931.92,265.20 932.90,266.38 C934.12,267.85 933.57,268.00 927.10,268.00 C920.91,268.00 920.00,267.86 919.20,266.00 C919.95,266.90 921.00,266.28 921.00,264.41 C921.00,262.38 918.13,261.45 916.68,263.01 C915.76,264.01 915.79,264.13 916.82,263.55 C917.07,263.40 917.31,263.34 917.52,263.36 L 912.44 266.03 C906.15,269.34 898.84,269.94 893.45,267.59 ZM 576.88 267.56 C574.20,266.04 572.70,264.20 571.88,259.96 C571.94,259.99 572.00,260.00 572.06,260.00 C572.64,260.00 572.86,259.59 572.55,259.09 C572.24,258.58 572.55,257.98 573.23,257.76 C574.14,257.45 574.00,256.86 572.74,255.60 C571.93,254.79 571.49,254.39 571.26,254.54 C571.07,251.45 571.00,247.58 571.00,242.66 L 571.00 226.13 L 567.75 225.81 C565.96,225.64 564.61,225.16 564.75,224.75 C564.89,224.34 565.00,221.92 565.00,219.39 C565.00,214.83 565.04,214.78 568.00,215.21 L 571.00 215.65 L 571.02 210.08 L 571.04 204.50 L 577.45 200.75 C577.49,200.73 577.53,200.71 577.57,200.68 C576.67,201.26 575.66,201.92 574.53,202.68 C571.50,204.70 574.74,204.30 579.75,202.03 C582.22,200.90 584.00,199.42 584.00,198.47 C584.00,197.74 583.56,197.52 582.43,197.95 C583.54,197.36 584.29,197.00 584.43,197.00 C584.74,197.00 585.00,201.05 585.00,206.00 L 585.00 215.00 L 589.88 215.00 C585.44,215.00 584.92,215.20 586.00,216.50 C586.68,217.32 588.31,218.00 589.62,218.00 C591.66,218.00 592.00,218.49 592.00,221.42 C592.00,223.30 592.56,225.06 593.25,225.34 C593.94,225.62 594.61,225.88 594.75,225.92 C594.89,225.96 595.00,223.52 595.00,220.50 L 595.00 226.00 L 585.00 226.00 L 585.00 239.92 C585.00,247.57 585.27,254.55 585.61,255.42 C586.03,256.52 587.51,257.00 590.51,257.00 L 594.80 257.00 L 594.89 257.98 C594.54,257.28 593.36,257.00 590.96,257.00 C587.56,257.00 587.13,257.22 588.21,258.39 C589.15,259.40 589.72,259.47 590.33,258.64 C590.93,257.80 591.29,257.83 591.66,258.75 C592.33,260.39 594.66,260.33 594.97,258.84 L 595.23 261.75 C595.34,262.92 595.37,264.08 595.33,265.05 C594.51,264.93 593.01,265.63 591.17,267.08 L 589.22 268.61 C584.62,268.90 578.66,268.57 576.88,267.56 ZM 675.25 266.50 C675.94,267.29 676.61,267.94 676.75,267.96 C676.89,267.98 677.00,258.56 677.00,247.00 L 677.00 268.00 L 663.00 268.00 L 663.00 226.00 L 655.00 226.00 L 655.00 215.00 L 659.38 215.00 C656.42,215.00 656.11,215.21 657.21,216.46 C659.63,219.20 664.10,217.59 663.92,214.05 C663.87,213.02 663.67,212.92 663.34,213.75 C663.28,213.88 663.17,214.02 663.01,214.14 L 663.07 209.25 C663.09,207.57 663.24,206.05 663.51,204.68 C664.00,204.25 664.84,203.35 665.78,202.23 C667.27,200.43 669.85,197.81 671.50,196.41 C673.15,195.00 673.83,194.21 673.00,194.65 C672.17,195.09 670.92,195.53 670.20,195.64 C670.17,195.65 670.13,195.65 670.10,195.66 C672.89,194.19 674.98,193.96 681.43,194.41 C685.80,194.72 689.66,195.31 690.02,195.73 C690.38,196.15 690.27,198.41 689.78,200.75 L 688.88 205.00 L 684.15 205.00 C688.81,205.00 688.92,204.92 689.57,201.45 C689.94,199.50 689.96,197.63 689.62,197.29 C689.28,196.95 689.00,197.54 689.00,198.61 C689.00,199.68 688.10,201.33 687.00,202.27 C685.90,203.21 685.00,203.53 685.00,202.99 C685.00,200.23 677.78,203.41 675.57,207.14 C673.54,210.58 673.57,213.87 675.65,216.17 C677.76,218.50 685.50,218.74 686.36,216.50 C686.82,215.29 685.98,215.00 682.00,215.00 L 687.00 215.00 L 687.00 226.00 L 677.00 226.00 L 677.00 246.88 C677.00,228.22 676.83,225.90 675.50,227.00 C674.27,228.02 674.00,231.51 674.00,246.66 C674.00,259.98 674.35,265.48 675.25,266.50 ZM 485.00 195.00 L 499.00 195.00 L 499.00 268.00 L 485.00 268.00 L 485.00 195.00 ZM 775.00 226.91 C775.00,227.08 775.77,227.24 777.00,227.34 C775.91,227.66 775.15,228.28 774.11,229.38 C771.27,232.40 771.29,232.28 771.13,252.25 L 771.00 268.00 L 757.00 268.00 L 757.00 215.00 L 763.50 215.00 C758.51,215.01 758.06,215.20 759.36,216.50 C760.18,217.32 762.46,218.00 764.43,218.00 C767.60,218.00 768.00,218.29 768.00,220.57 C768.00,222.66 768.42,223.08 770.24,222.82 C771.52,222.64 772.64,221.66 772.86,220.53 C773.18,218.82 773.02,218.74 771.62,219.90 C771.30,220.16 771.05,220.36 770.84,220.47 L 774.00 217.62 C774.39,217.27 774.77,216.94 775.15,216.64 C774.90,217.00 775.45,216.95 776.92,216.78 C778.25,216.63 779.53,215.94 779.76,215.25 C779.91,214.77 779.91,214.44 779.76,214.25 C782.11,213.67 784.66,213.98 787.88,215.11 C788.25,215.24 788.57,215.35 788.86,215.45 C788.49,215.32 788.05,215.18 787.55,215.02 C785.60,214.37 783.23,214.06 782.26,214.31 C780.93,214.66 781.04,214.80 782.75,214.88 C783.99,214.95 785.00,215.45 785.00,216.00 C785.00,216.55 785.67,217.00 786.50,217.00 C788.31,217.00 788.42,218.99 786.80,222.54 C785.80,224.73 785.09,225.09 782.55,224.72 C779.65,224.29 775.00,225.65 775.00,226.91 ZM 724.55 256.41 C729.50,254.06 732.07,248.10 731.89,239.40 C731.76,232.71 731.63,232.38 727.72,228.64 C724.03,225.11 723.31,224.82 719.35,225.26 C713.65,225.91 709.97,228.39 708.05,233.07 C708.62,231.09 708.36,231.27 706.86,232.63 C705.84,233.55 705.00,235.14 705.00,236.15 C705.00,238.85 706.14,238.41 707.23,235.59 C706.77,237.41 706.51,239.50 706.43,241.86 C706.25,247.15 706.62,248.83 708.64,251.86 C712.39,257.47 718.58,259.24 724.55,256.41 ZM 454.40 225.09 C458.00,221.71 459.05,218.02 457.47,214.26 C457.27,213.80 457.07,213.37 456.86,212.98 C457.89,214.48 458.00,214.09 457.66,211.75 C457.32,209.45 451.32,205.70 449.62,206.74 C449.14,207.03 450.13,207.86 451.82,208.57 C452.30,208.77 452.81,209.04 453.30,209.35 C450.93,208.15 447.43,207.72 441.75,207.64 L 432.50 207.50 L 431.93 228.24 L 434.29 228.14 C432.77,228.28 432.33,228.55 432.95,228.95 C433.75,229.45 434.76,229.65 435.20,229.38 C435.64,229.10 436.00,229.36 436.00,229.94 C436.00,231.54 440.93,231.21 442.64,229.50 C443.98,228.17 443.44,228.00 437.82,228.02 C437.66,228.02 437.50,228.02 437.35,228.02 L 441.92 227.83 C450.71,227.48 452.21,227.15 454.40,225.09 ZM 560.34 368.92 C565.74,367.42 570.90,362.38 572.03,357.50 C573.23,352.28 573.25,347.00 572.06,347.00 C571.54,347.00 566.15,348.60 560.08,350.56 C548.27,354.37 544.97,356.86 545.03,361.88 C545.11,368.45 551.49,371.38 560.34,368.92 ZM 813.64 333.45 C812.83,323.69 801.21,317.99 791.98,322.82 C788.27,324.77 784.00,331.66 784.00,335.71 C784.00,337.99 784.04,338.00 799.01,338.00 L 814.02 338.00 ZM 627.41 258.47 C629.58,257.57 631.47,255.91 632.04,254.41 C632.89,252.17 633.23,246.16 632.82,243.88 C633.04,244.54 633.08,245.70 633.14,247.64 C633.21,250.31 633.47,251.49 633.71,250.25 C633.94,249.01 634.57,248.00 635.10,248.00 C636.17,248.00 635.83,243.50 634.68,242.34 C633.32,240.99 630.74,241.12 629.24,242.62 C628.50,243.36 628.22,243.71 628.53,243.77 C624.41,244.85 618.55,246.76 617.25,247.60 C616.80,247.89 616.41,248.23 616.09,248.61 C617.02,247.34 618.59,246.62 621.37,245.84 C626.85,244.28 628.00,243.19 623.27,244.03 C614.78,245.54 612.32,247.92 613.67,253.33 L 614.46 256.50 L 614.81 253.00 C614.84,252.67 614.88,252.36 614.92,252.06 C614.98,254.54 616.60,257.26 619.50,258.85 C622.18,260.31 623.12,260.26 627.41,258.47 ZM 536.15 258.58 C539.70,257.10 543.39,253.72 542.47,252.80 C542.17,252.51 542.35,250.40 542.86,248.13 C543.44,245.53 543.44,243.77 542.84,243.40 C542.02,242.90 538.12,243.63 534.23,244.73 C535.19,244.38 537.55,243.80 539.53,243.43 C542.05,242.96 542.78,242.48 541.86,241.91 C540.14,240.85 535.96,241.89 534.01,243.86 C533.22,244.66 532.90,245.02 533.07,245.07 C529.78,246.07 526.72,247.28 525.86,248.14 C525.11,248.89 524.60,249.74 524.32,250.63 C524.30,249.72 523.99,249.45 523.33,249.70 C522.31,250.10 522.14,252.12 522.93,254.75 C523.21,255.69 523.73,254.74 524.09,252.76 C524.23,254.42 525.09,256.11 526.65,257.55 C529.69,260.37 531.42,260.56 536.15,258.58 ZM 910.84 258.08 C912.91,257.02 915.14,254.98 915.80,253.53 C917.28,250.30 917.38,243.00 915.96,243.00 C915.51,243.00 913.38,243.44 910.81,244.05 C912.17,243.57 912.30,243.19 911.50,242.74 C910.45,242.15 909.34,242.30 908.29,243.17 C907.41,243.90 906.65,244.36 906.60,244.18 C906.48,243.79 901.05,245.69 899.09,246.80 C898.31,247.25 897.55,248.42 897.41,249.42 C897.19,250.92 897.61,250.79 899.84,248.66 C900.53,247.99 901.58,247.31 902.81,246.69 C897.44,249.52 896.65,253.65 901.03,258.03 C903.51,260.51 906.06,260.52 910.84,258.08 ZM 485.14 231.68 C485.21,251.93 485.47,267.49 485.71,266.25 C485.94,265.01 486.56,264.00 487.07,264.00 C487.62,264.00 488.00,250.66 488.00,230.93 C488.00,202.87 487.77,197.63 486.50,196.36 C485.17,195.02 485.02,198.95 485.14,231.68 ZM 769.25 266.50 C769.94,267.29 770.61,267.94 770.75,267.96 C770.89,267.98 771.00,261.89 771.00,254.43 C771.00,242.37 770.83,241.02 769.50,242.36 C767.54,244.32 767.33,264.33 769.25,266.50 ZM 682.12 316.28 C682.18,322.45 682.44,326.71 682.69,325.75 C682.94,324.79 683.56,324.00 684.07,324.00 C684.58,324.00 685.00,320.00 685.00,315.11 C685.00,308.12 684.68,306.09 683.50,305.64 C682.22,305.15 682.02,306.69 682.12,316.28 ZM 542.05 228.64 C543.14,231.50 544.00,231.69 544.00,229.07 C544.00,228.01 542.67,226.19 541.05,225.04 C538.49,223.21 537.47,223.06 533.30,223.86 L 528.50 224.78 L 533.17 224.89 C539.24,225.03 540.96,225.76 542.05,228.64 ZM 613.21 315.78 L 613.41 326.50 L 613.74 317.75 C613.93,312.94 614.51,309.00 615.04,309.00 C616.58,309.00 616.14,306.27 614.50,305.64 C613.22,305.15 613.03,306.61 613.21,315.78 ZM 564.64 367.08 C561.16,369.20 562.07,369.57 566.77,367.93 C569.90,366.84 571.62,364.50 570.03,363.52 C569.54,363.21 568.83,363.46 568.46,364.06 C568.09,364.67 566.37,366.02 564.64,367.08 ZM 783.00 332.75 C783.00,334.77 784.20,333.48 785.77,329.79 C786.41,328.29 786.56,326.84 786.11,326.57 C785.17,325.99 783.00,330.30 783.00,332.75 ZM 889.05 331.56 C889.81,332.48 891.92,332.95 894.87,332.86 C897.46,332.79 898.40,332.54 897.00,332.30 C895.62,332.07 893.01,331.48 891.18,331.00 C888.34,330.25 888.03,330.33 889.05,331.56 ZM 306.88 493.52 C308.21,493.77 309.05,493.91 309.28,493.92 C310.25,493.96 322.18,485.07 335.84,474.13 L 310.67 494.30 L 306.88 493.52 ZM 810.00 364.50 C807.81,366.83 808.16,367.89 810.57,366.23 C811.57,365.55 813.30,362.00 812.64,362.00 C812.48,362.00 811.29,363.12 810.00,364.50 ZM 163.96 169.12 C164.02,169.04 164.09,169.00 164.15,169.00 C164.68,169.00 173.98,172.18 184.81,176.07 C195.64,179.96 208.77,184.64 214.00,186.47 C215.38,186.96 216.73,187.43 218.00,187.88 C210.90,185.50 198.78,181.16 177.23,173.46 C170.85,171.18 165.37,169.39 163.96,169.12 ZM 103.45 407.37 C115.39,418.86 144.29,445.11 151.74,451.09 C147.88,448.06 138.35,439.71 128.31,430.50 C115.42,418.68 107.89,411.75 103.45,407.37 ZM 258.08 77.30 C255.86,78.01 253.06,80.47 244.50,88.93 L 255.98 77.50 L 258.08 77.30 ZM 266.44 246.98 C261.78,247.57 257.48,248.91 253.60,250.97 C257.72,248.49 261.97,247.00 265.66,247.00 C265.96,247.00 266.22,247.00 266.44,246.98 ZM 332.58 504.67 C341.23,497.92 352.23,489.09 361.55,481.41 C352.26,489.18 341.39,497.92 332.58,504.67 ZM 119.23 362.38 C119.27,359.12 119.29,356.69 119.27,356.25 C119.24,355.56 119.61,355.00 120.08,355.00 C120.09,355.00 120.10,355.00 120.11,355.00 C119.78,355.13 119.49,357.70 119.23,362.38 ZM 900.65 228.00 C900.62,228.04 900.58,228.09 900.54,228.13 L 897.91 231.26 L 896.57 230.99 C897.78,230.57 899.44,229.44 900.65,228.00 ZM 215.53 290.25 C216.56,299.14 219.67,308.23 223.87,314.46 C219.33,307.73 216.46,299.14 215.53,290.25 ZM 306.37 270.82 C305.45,268.41 304.27,266.05 302.83,263.78 C299.81,259.03 296.32,255.53 291.45,252.53 C293.31,253.64 294.98,254.80 296.23,255.90 C300.81,259.92 304.26,265.12 306.37,270.82 ZM 231.50 132.76 L 265.50 98.36 L 286.87 96.55 L 265.50 98.41 L 231.50 132.76 ZM 637.34 215.74 C638.17,215.98 638.90,216.26 639.50,216.57 C642.56,218.15 644.40,219.68 645.49,222.63 C645.44,222.53 645.39,222.42 645.33,222.31 C643.85,219.33 641.13,217.11 637.34,215.74 ZM 124.71 397.20 L 137.50 408.92 C147.95,418.50 158.08,427.82 160.00,429.63 C158.08,427.82 147.95,418.53 137.50,408.98 C132.68,404.57 128.19,400.43 124.71,397.20 ZM 603.19 225.41 C603.22,225.52 603.29,225.67 603.40,225.85 C603.80,226.48 603.64,227.00 603.06,227.00 C602.69,227.00 602.42,227.08 602.25,227.21 C602.45,226.71 602.77,226.09 603.19,225.41 ZM 96.60 395.14 C96.83,397.29 97.31,399.57 97.81,401.00 C97.10,399.84 96.90,398.99 96.73,397.94 C96.66,397.51 96.62,396.54 96.60,395.14 ZM 338.04 103.10 C342.52,107.07 348.21,112.30 355.31,118.98 C354.32,118.04 347.49,111.76 340.14,105.02 L 338.04 103.10 ZM 796.16 215.92 L 796.17 215.00 L 802.50 215.00 C798.35,215.00 796.66,215.21 796.16,215.92 ZM 239.08 237.88 C234.62,241.26 229.86,245.87 226.26,250.31 C227.91,248.20 229.78,246.13 231.93,244.00 C234.27,241.70 236.64,239.66 239.08,237.88 ZM 732.55 217.30 C730.51,216.34 727.96,215.34 726.05,214.83 C728.35,215.18 729.99,215.89 732.55,217.30 ZM 303.33 73.20 C309.71,72.62 316.49,71.96 321.00,71.49 C325.54,71.01 328.59,70.74 330.71,70.68 C328.67,70.74 325.77,71.01 321.50,71.47 C316.23,72.05 308.86,72.75 303.33,73.20 ZM 818.75 225.08 C817.20,225.32 815.74,225.93 814.63,226.88 C815.94,225.47 816.81,225.05 818.75,225.08 ZM 110.38 227.08 C102.73,231.32 96.73,234.88 95.98,235.68 C95.52,236.16 94.09,238.74 92.12,242.55 C94.03,238.77 95.39,236.22 95.77,235.77 C96.44,235.01 102.56,231.38 110.38,227.08 ZM 278.77 339.82 C281.46,339.48 285.39,338.56 288.65,337.48 C288.59,337.50 288.54,337.52 288.49,337.54 C284.34,338.93 281.97,339.59 278.77,339.82 ZM 323.56 305.01 C324.87,301.46 326.13,297.06 326.87,293.62 C326.79,294.05 326.71,294.48 326.62,294.91 C325.87,298.44 324.84,301.81 323.56,305.01 ZM 151.72 369.50 C166.12,376.28 178.66,382.02 182.47,383.58 C180.87,383.07 166.79,376.62 150.73,369.04 C148.53,368.00 146.38,366.99 144.31,366.02 C146.69,367.14 149.18,368.30 151.72,369.50 ZM 245.87 334.59 C249.66,336.25 254.03,337.68 258.03,338.63 C254.06,337.85 250.46,336.61 245.87,334.59 ZM 82.01 263.23 C75.69,276.56 72.14,284.38 70.40,288.90 C70.83,287.72 71.33,286.45 71.87,285.20 C73.92,280.40 77.88,271.87 82.01,263.23 ZM 295.43 334.75 C302.65,331.31 309.02,326.49 314.11,320.67 C309.08,326.52 302.80,331.27 295.43,334.75 ZM 262.16 320.25 C264.71,320.72 267.65,320.93 271.50,320.95 C275.45,320.97 277.88,320.89 280.00,320.50 C277.90,320.90 275.52,321.00 271.79,321.00 C267.82,321.00 264.83,320.78 262.16,320.25 ZM 650.88 276.69 C652.69,275.80 653.86,275.25 654.05,275.18 C654.12,275.15 654.19,275.25 654.25,275.46 C653.57,275.60 652.33,276.06 650.88,276.69 ZM 914.82 226.83 C913.29,225.65 911.00,225.00 908.09,225.00 C911.53,225.00 913.33,225.48 914.82,226.83 ZM 227.85 190.56 C228.08,190.54 228.30,190.50 228.50,190.46 C229.22,190.30 230.08,190.16 230.75,190.08 C230.48,190.21 230.26,190.30 230.10,190.33 C229.79,190.39 229.51,190.45 229.23,190.49 C228.81,190.56 228.39,190.59 227.85,190.56 ZM 255.22 230.04 C252.41,230.90 249.51,231.98 246.95,233.14 C249.60,231.86 252.34,230.83 255.22,230.04 ZM 290.98 231.09 C288.61,230.25 286.09,229.53 283.76,229.01 C284.57,229.15 285.29,229.30 285.87,229.45 C287.61,229.92 289.31,230.46 290.98,231.09 ZM 850.90 225.03 C849.53,225.22 848.20,225.71 847.11,226.50 C848.23,225.54 849.31,225.14 850.90,225.03 ZM 594.82 267.46 C594.40,267.84 593.33,268.14 591.89,268.35 C593.26,268.01 594.20,267.74 594.82,267.46 ZM 300.91 306.97 C301.58,306.10 302.21,305.19 302.83,304.22 C304.18,302.08 305.31,299.87 306.21,297.60 C304.86,301.06 303.10,304.19 300.91,306.97 ZM 441.57 274.10 L 451.00 273.95 L 451.00 274.00 L 441.57 274.10 ZM 248.72 313.67 C244.24,310.07 240.17,305.33 237.72,300.59 C240.12,305.23 244.25,310.03 248.72,313.67 ZM 184.06 458.42 L 205.45 461.89 L 205.48 461.91 L 184.06 458.42 ZM 224.60 108.73 L 219.50 113.81 L 184.50 127.98 C166.55,135.25 157.05,139.18 151.80,141.82 C157.05,139.18 166.53,135.26 184.50,127.98 L 219.50 113.81 L 224.60 108.73 ZM 162.47 176.48 C162.65,174.66 162.89,173.00 163.15,171.71 C162.97,172.94 162.73,174.56 162.47,176.48 ZM 840.58 221.39 C841.02,221.23 841.59,220.79 842.47,220.04 C841.66,220.91 841.12,221.34 840.58,221.39 ZM 552.15 218.77 C552.34,218.92 552.51,219.06 552.66,219.20 C553.15,219.69 553.59,220.29 553.99,220.99 C553.54,220.33 553.05,219.69 552.52,219.15 C552.39,219.01 552.27,218.89 552.15,218.77 ZM 721.58 275.85 C722.40,275.46 722.91,275.22 723.04,275.18 C723.09,275.16 723.14,275.20 723.19,275.30 C722.82,275.38 722.26,275.58 721.58,275.85 ZM 742.67 255.89 C743.14,255.09 743.64,254.09 744.09,253.04 C743.95,253.46 743.79,253.84 743.64,254.15 C743.36,254.72 743.04,255.30 742.67,255.89 ZM 535.53 305.71 L 533.69 306.44 C532.91,306.75 532.12,307.10 531.34,307.49 C532.66,306.82 534.06,306.22 535.53,305.71 ZM 233.93 459.28 C235.72,461.48 239.90,466.04 244.75,471.02 L 256.50 483.11 L 258.29 483.49 L 256.50 483.12 L 244.75 471.03 C239.90,466.04 235.72,461.48 233.93,459.28 ZM 195.32 375.20 C200.43,370.93 207.92,364.59 219.04,355.19 C207.96,364.56 200.46,370.91 195.32,375.20 ZM 602.05 227.99 C602.13,228.23 602.30,228.47 602.55,228.70 C602.36,228.63 602.23,228.57 602.18,228.52 C602.07,228.41 602.03,228.23 602.05,227.99 ZM 842.68 365.52 C842.83,365.19 842.90,364.92 842.89,364.71 C842.96,364.75 843.00,364.80 842.99,364.85 C842.99,364.94 842.88,365.18 842.68,365.52 ZM 216.31 272.48 C215.99,274.11 215.73,275.75 215.55,277.39 C215.73,275.73 215.98,274.09 216.31,272.48 ZM 314.58 516.42 C315.18,516.25 315.86,516.05 316.51,515.87 C316.44,515.89 316.38,515.91 316.32,515.93 C315.64,516.12 315.08,516.28 314.58,516.42 ZM 144.89 147.20 C144.82,147.35 144.72,147.67 144.61,148.14 C144.71,147.68 144.80,147.38 144.86,147.27 C144.87,147.25 144.88,147.22 144.89,147.20 ZM 307.62 293.33 C307.86,292.40 308.07,291.46 308.24,290.52 C308.08,291.47 307.87,292.40 307.62,293.33 ZM 787.45 226.43 C787.30,226.63 787.13,226.79 786.93,226.92 C787.13,226.78 787.30,226.62 787.45,226.43 ZM 327.10 275.66 C327.05,275.34 327.00,275.02 326.94,274.68 C326.99,275.00 327.05,275.33 327.10,275.66 Z" fill="rgba(255, 255, 255, 1)"/>
    <path d="M 299.50 514.46 C293.45,513.18 278.61,510.06 266.51,507.54 L 244.53 502.96 L 235.56 493.23 C230.62,487.88 221.83,478.64 216.02,472.70 L 205.45 461.89 L 182.48 458.16 C169.84,456.11 160.04,454.10 160.71,453.69 C161.83,452.98 169.97,453.87 183.00,456.10 C186.02,456.62 191.88,457.49 196.00,458.03 C206.38,459.38 208.05,460.26 214.88,467.94 C218.18,471.66 223.72,477.58 227.19,481.10 C230.66,484.63 236.02,490.31 239.11,493.72 C244.58,499.79 247.22,501.48 252.78,502.45 C256.41,503.08 269.63,505.92 274.00,507.01 C275.92,507.49 282.45,508.84 288.50,510.01 C306.74,513.54 308.39,513.97 309.94,515.51 C310.76,516.33 311.22,516.96 310.96,516.90 C310.71,516.85 305.55,515.75 299.50,514.46 ZM 312.44 516.09 C312.82,515.47 314.66,514.33 316.53,513.55 C320.11,512.06 343.38,493.77 363.46,476.68 C378.02,464.29 380.00,462.40 380.00,460.97 C380.00,460.36 380.75,459.10 381.67,458.18 C383.24,456.62 383.30,456.73 382.67,459.91 C382.29,461.78 381.43,463.98 380.74,464.81 C376.58,469.84 321.05,514.56 317.82,515.49 C316.54,515.86 314.66,516.40 313.62,516.69 C312.40,517.03 311.99,516.82 312.44,516.09 ZM 290.00 492.85 C279.83,490.73 268.25,488.34 264.29,487.55 C260.32,486.76 256.21,485.65 255.15,485.08 C252.99,483.93 233.58,463.74 231.25,460.22 C229.84,458.10 229.96,457.58 232.98,452.72 C239.43,442.33 258.03,416.20 259.33,415.70 C260.82,415.13 267.85,416.62 278.51,419.77 C282.35,420.91 288.20,422.40 291.50,423.08 C299.15,424.67 300.40,425.33 304.56,429.93 C306.44,432.02 310.03,434.50 312.53,435.46 C317.04,437.18 317.13,437.17 322.42,434.67 C328.94,431.58 332.17,427.33 332.77,421.01 C333.72,411.11 326.73,403.71 316.42,403.71 C312.32,403.71 310.12,404.27 307.98,405.86 C306.39,407.04 303.90,408.00 302.46,408.00 C301.02,408.00 290.00,405.49 277.97,402.42 C265.94,399.36 255.08,397.00 253.85,397.17 C251.47,397.52 247.45,402.68 230.45,427.25 C225.21,434.81 219.81,441.73 218.43,442.63 C215.87,444.31 211.10,443.96 196.00,440.96 C193.52,440.47 186.77,439.35 181.00,438.48 C162.92,435.76 162.31,435.52 154.10,428.18 C130.56,407.12 117.00,393.78 117.02,391.70 C117.02,390.46 117.35,389.96 117.77,390.56 C118.17,391.14 127.05,399.43 137.50,408.98 C147.95,418.53 158.08,427.82 160.00,429.63 C163.44,432.86 163.98,433.00 188.26,436.96 C201.87,439.18 214.05,441.00 215.32,441.00 C217.17,441.00 219.68,438.04 227.85,426.25 C250.19,394.00 250.19,394.00 253.12,394.00 C254.61,394.00 266.41,396.71 279.34,400.02 L 302.85 406.04 L 306.44 403.61 C321.75,393.21 341.61,409.63 334.45,426.77 C331.23,434.47 325.42,438.32 317.00,438.32 C310.43,438.32 306.41,436.44 301.85,431.21 C298.61,427.49 297.88,427.21 279.81,422.59 C269.53,419.96 260.68,418.08 260.15,418.41 C258.75,419.28 233.00,456.77 233.00,457.95 C233.00,458.49 238.29,464.38 244.75,471.03 L 256.50 483.12 L 283.59 488.71 L 310.67 494.30 L 335.84 474.13 L 361.00 453.96 L 361.00 304.98 C361.00,223.04 360.77,156.00 360.48,156.00 C360.20,156.00 356.89,160.67 353.13,166.38 C346.80,175.98 346.29,177.16 346.29,182.15 C346.29,188.49 344.44,192.53 339.57,196.80 C331.84,203.59 318.12,201.95 311.77,193.48 C309.25,190.13 307.60,182.97 308.37,178.82 C309.75,171.46 316.62,164.64 323.86,163.45 C325.86,163.12 328.02,162.68 328.66,162.49 C329.30,162.29 335.97,152.81 343.48,141.41 C356.56,121.55 357.05,120.61 355.31,118.98 C335.54,100.40 326.75,93.00 324.45,93.00 C322.99,93.00 322.15,92.57 322.50,92.00 C322.84,91.45 324.45,91.00 326.07,91.00 C328.26,91.00 330.63,92.47 335.26,96.69 C352.67,112.56 359.00,118.92 359.00,120.52 C359.00,122.43 356.40,126.72 341.53,149.32 C336.17,157.47 330.82,164.53 329.64,165.01 C328.46,165.48 325.70,166.17 323.51,166.53 C314.99,167.92 309.07,178.61 311.95,187.36 C313.19,191.12 320.02,198.00 322.52,198.00 C323.35,198.00 324.81,198.49 325.76,199.08 C327.12,199.93 328.69,199.55 332.98,197.33 C340.01,193.70 343.00,189.36 343.00,182.79 C343.00,180.08 343.51,176.89 344.14,175.68 C346.90,170.41 358.21,154.13 359.45,153.66 C360.20,153.37 361.49,153.89 362.33,154.82 C363.66,156.30 363.85,173.82 363.90,304.23 C363.94,387.74 363.58,452.98 363.08,454.29 C362.59,455.57 352.36,464.50 340.35,474.12 C315.67,493.90 313.30,495.65 310.50,496.27 C309.40,496.52 300.17,494.98 290.00,492.85 ZM 153.31 452.25 C149.73,450.27 100.15,405.07 98.29,402.10 C97.63,401.04 96.86,397.77 96.57,394.84 C96.20,391.11 96.29,390.40 96.85,392.50 C98.58,398.87 101.52,402.33 118.67,418.15 C128.41,427.14 139.96,437.80 144.32,441.82 C148.68,445.85 153.76,449.87 155.62,450.76 C159.02,452.38 160.08,454.00 157.73,454.00 C157.04,454.00 155.05,453.21 153.31,452.25 ZM 894.25 386.31 C895.21,386.06 896.00,385.44 896.00,384.93 C896.00,384.42 896.67,384.00 897.50,384.00 C898.33,384.00 899.00,384.42 899.00,384.93 C899.00,385.44 899.79,386.06 900.75,386.31 C901.71,386.56 900.25,386.77 897.50,386.77 C894.75,386.77 893.29,386.56 894.25,386.31 ZM 151.72 369.50 C134.79,361.52 120.55,355.00 120.08,355.00 C119.61,355.00 119.24,355.56 119.27,356.25 C119.29,356.94 119.24,362.37 119.16,368.32 C119.01,378.37 118.88,379.02 117.35,377.50 C115.95,376.09 115.81,374.38 116.37,365.76 C117.05,355.45 117.93,353.00 120.97,353.00 C121.91,353.00 132.77,357.78 145.09,363.61 C157.42,369.45 170.73,375.75 174.68,377.61 C178.64,379.48 182.48,381.00 183.23,381.00 C183.99,381.00 187.05,378.84 190.05,376.20 C193.05,373.56 205.99,362.53 218.80,351.70 C243.45,330.87 244.14,330.47 250.22,333.61 C251.93,334.50 256.68,335.81 260.77,336.52 C270.45,338.20 273.09,340.47 264.50,339.73 C259.36,339.29 251.88,337.23 245.87,334.59 C244.68,334.07 237.51,339.58 219.04,355.19 C185.65,383.43 184.94,384.00 183.63,384.00 C183.01,384.00 168.65,377.47 151.72,369.50 ZM 630.18 379.51 C628.97,377.96 628.22,376.45 628.51,376.15 C629.40,375.27 633.27,379.68 632.82,381.05 C632.55,381.85 631.58,381.28 630.18,379.51 ZM 699.06 379.35 C697.91,377.89 697.20,376.47 697.48,376.19 C698.29,375.38 701.67,378.86 701.67,380.50 C701.67,382.51 701.48,382.43 699.06,379.35 ZM 97.49 363.38 L 98.19 345.26 L 85.46 325.88 C73.80,308.12 69.00,298.77 69.00,293.79 C69.00,291.30 72.63,282.92 84.49,258.00 C89.86,246.73 95.03,236.68 95.98,235.68 C96.92,234.68 106.20,229.28 116.60,223.68 L 135.50 213.50 L 136.52 206.50 C137.12,202.43 137.87,200.02 138.32,200.74 C139.55,202.68 138.30,213.01 136.62,214.85 C135.78,215.76 126.39,221.18 115.74,226.90 C97.18,236.87 96.31,237.47 94.81,241.40 C93.94,243.65 88.46,255.53 82.62,267.79 C70.94,292.30 70.34,294.75 74.08,302.99 C75.20,305.47 81.49,315.61 88.05,325.53 L 99.98 343.58 L 99.74 361.24 C99.56,374.57 99.17,379.22 98.14,380.20 C97.00,381.29 96.89,378.63 97.49,363.38 ZM 860.92 376.40 L 858.50 373.81 L 861.00 374.15 C862.78,374.40 863.53,375.15 863.61,376.75 C863.68,377.99 863.64,379.00 863.54,379.00 C863.43,379.00 862.26,377.83 860.92,376.40 ZM 763.53 375.03 C760.78,372.16 760.76,372.07 762.97,372.49 C765.79,373.04 765.96,373.20 766.47,375.86 C767.00,378.60 766.92,378.57 763.53,375.03 ZM 834.42 374.33 C834.56,373.42 835.74,372.27 837.05,371.78 L 839.44 370.90 L 837.05 373.45 C834.22,376.46 834.10,376.50 834.42,374.33 ZM 839.58 367.87 C839.72,366.56 839.87,365.16 839.92,364.75 C839.96,364.34 840.67,364.00 841.50,364.00 C843.46,364.00 843.36,364.97 841.14,367.87 L 839.32 370.23 L 839.58 367.87 ZM 564.64 367.08 C566.37,366.02 568.09,364.67 568.46,364.06 C568.83,363.46 569.54,363.21 570.03,363.52 C571.62,364.50 569.90,366.84 566.77,367.93 C562.07,369.57 561.16,369.20 564.64,367.08 ZM 671.00 368.40 C671.00,367.88 669.82,366.75 668.38,365.87 L 665.75 364.28 L 668.31 363.79 C670.38,363.40 670.98,363.77 671.48,365.77 C671.82,367.13 671.85,368.48 671.55,368.78 C671.25,369.09 671.00,368.91 671.00,368.40 ZM 740.00 368.11 C740.00,367.43 739.66,367.06 739.25,367.28 C738.84,367.50 737.76,366.90 736.85,365.94 C735.30,364.31 735.35,364.17 737.53,363.75 C739.35,363.40 739.99,363.84 740.48,365.77 C740.82,367.13 740.85,368.48 740.55,368.78 C740.25,369.09 740.00,368.78 740.00,368.11 ZM 810.00 364.50 C811.29,363.12 812.48,362.00 812.64,362.00 C813.30,362.00 811.57,365.55 810.57,366.23 C808.16,367.89 807.81,366.83 810.00,364.50 ZM 832.21 364.46 C831.12,363.22 831.33,363.00 833.58,363.00 C835.84,363.00 836.05,363.23 835.00,364.50 C833.53,366.27 833.81,366.27 832.21,364.46 ZM 152.50 348.67 C138.20,341.93 122.90,334.64 118.50,332.46 L 110.50 328.50 L 102.19 316.00 C97.61,309.12 92.74,301.60 91.36,299.28 L 88.85 295.07 L 95.45 280.51 C108.54,251.61 109.98,249.04 114.45,246.80 C116.68,245.69 124.16,241.68 131.07,237.89 C137.98,234.10 144.73,231.00 146.08,231.00 C147.73,231.00 151.19,233.46 156.78,238.60 C168.51,249.39 168.93,250.70 162.14,255.40 C158.90,257.65 157.45,257.96 150.66,257.89 C144.22,257.83 142.35,258.19 139.70,260.01 C133.37,264.36 131.03,269.99 132.43,277.46 C133.81,284.85 143.57,291.05 151.46,289.57 C156.27,288.67 162.70,282.81 163.99,278.14 C165.39,273.09 165.42,273.06 175.50,266.28 C188.35,257.65 191.40,253.69 188.98,248.79 C188.36,247.53 180.40,239.26 171.29,230.41 C155.02,214.59 154.74,214.25 155.40,210.91 C156.96,203.02 157.28,201.95 158.26,201.34 C158.96,200.91 159.06,202.77 158.58,207.03 L 157.86 213.36 L 174.94 229.93 L 192.02 246.50 L 192.01 251.12 C192.00,257.24 190.10,259.48 177.66,268.09 C168.54,274.40 167.41,275.53 166.27,279.43 C164.69,284.84 158.71,290.46 152.81,292.07 C141.30,295.21 129.04,285.64 129.04,273.50 C129.04,261.59 140.97,251.97 152.18,254.82 C156.10,255.82 156.84,255.70 160.25,253.45 C162.31,252.09 164.00,250.57 164.00,250.08 C164.00,249.14 146.98,232.98 146.04,233.03 C145.74,233.04 137.90,237.20 128.61,242.28 L 111.71 251.50 L 101.91 272.50 C96.52,284.05 92.08,294.06 92.05,294.76 C92.02,295.45 96.77,303.16 102.59,311.90 L 113.18 327.80 L 120.34 330.83 C124.28,332.49 139.39,339.52 153.91,346.44 C176.70,357.29 180.54,358.83 181.91,357.67 C182.79,356.93 193.29,348.12 205.25,338.10 C217.21,328.08 227.00,319.71 227.00,319.49 C227.00,319.28 225.59,317.01 223.87,314.46 C219.15,307.47 215.82,296.85 215.24,286.97 C214.64,276.57 217.28,264.78 222.15,256.17 C226.39,248.68 237.04,238.28 244.51,234.33 C250.87,230.97 260.91,227.98 265.64,228.03 C268.27,228.06 268.35,228.17 266.70,229.43 C265.72,230.17 262.79,231.09 260.20,231.47 C246.75,233.42 229.91,246.56 223.24,260.29 C218.80,269.42 217.67,275.55 218.22,287.44 C218.72,298.15 220.42,303.60 226.30,313.28 C228.30,316.57 229.02,318.79 228.60,320.45 C227.81,323.62 183.48,361.02 180.58,360.96 C179.44,360.94 166.80,355.41 152.50,348.67 ZM 449.97 356.75 C449.96,356.06 449.97,342.79 450.00,327.25 C450.04,308.53 449.71,299.00 449.03,299.00 C448.46,299.00 448.00,297.20 448.00,295.00 C448.00,292.80 448.45,291.00 449.00,291.00 C449.55,291.00 450.00,290.33 450.00,289.50 C450.00,288.67 449.55,288.00 449.00,288.00 C447.55,288.00 447.77,282.26 449.25,281.66 C450.25,281.26 450.25,281.14 449.25,281.08 C448.56,281.04 448.00,280.10 448.00,279.00 C448.00,277.13 447.33,277.00 438.00,277.00 C432.45,277.00 428.00,276.58 428.00,276.06 C428.00,275.55 426.54,274.95 424.75,274.72 C422.96,274.50 428.14,274.25 436.25,274.16 L 451.00 274.00 L 451.00 316.00 C451.00,339.10 450.77,358.00 450.50,358.00 C450.23,358.00 449.99,357.44 449.97,356.75 ZM 906.75 357.31 C905.79,357.06 905.00,356.44 905.00,355.93 C905.00,354.47 907.63,354.84 909.00,356.50 C910.26,358.02 909.92,358.14 906.75,357.31 ZM 782.59 354.80 C781.55,352.49 782.67,350.98 785.31,351.12 C786.90,351.20 787.04,351.35 785.81,351.68 C784.88,351.92 783.95,353.11 783.74,354.31 C783.40,356.20 783.25,356.27 782.59,354.80 ZM 523.00 346.19 C523.00,345.65 523.71,344.94 524.58,344.61 C525.56,344.23 526.01,344.46 525.77,345.19 C525.27,346.68 523.00,347.50 523.00,346.19 ZM 929.98 343.48 C927.92,340.99 929.86,340.42 932.25,342.81 C934.01,344.57 934.13,345.00 932.84,345.00 C931.96,345.00 930.68,344.31 929.98,343.48 ZM 862.51 342.01 C860.85,340.18 860.84,340.00 862.38,340.00 C863.30,340.00 864.33,340.69 864.65,341.54 C865.59,343.97 864.50,344.20 862.51,342.01 ZM 274.44 338.47 C275.51,337.66 277.66,337.00 279.22,337.00 C287.38,337.00 301.70,329.53 310.13,320.86 C317.55,313.25 324.49,299.92 324.14,293.94 C324.00,291.37 326.37,287.04 327.37,288.04 C328.41,289.08 325.01,302.38 322.17,308.41 C315.86,321.83 303.63,332.45 288.79,337.44 C284.58,338.85 279.20,339.99 276.82,339.97 C272.80,339.94 272.64,339.83 274.44,338.47 ZM 783.00 332.75 C783.00,330.30 785.17,325.99 786.11,326.57 C786.56,326.84 786.41,328.29 785.77,329.79 C784.20,333.48 783.00,334.77 783.00,332.75 ZM 889.05 331.56 C888.03,330.33 888.34,330.25 891.18,331.00 C893.01,331.48 895.62,332.07 897.00,332.30 C898.40,332.54 897.46,332.79 894.87,332.86 C891.92,332.95 889.81,332.48 889.05,331.56 ZM 546.02 327.31 C546.04,324.64 547.53,322.76 549.30,323.15 C550.58,323.44 550.42,324.01 548.43,326.31 C546.46,328.58 546.00,328.77 546.02,327.31 ZM 682.12 316.28 C682.02,306.69 682.22,305.15 683.50,305.64 C684.68,306.09 685.00,308.12 685.00,315.11 C685.00,320.00 684.58,324.00 684.07,324.00 C683.56,324.00 682.94,324.79 682.69,325.75 C682.44,326.71 682.18,322.45 682.12,316.28 ZM 883.72 325.61 C882.70,323.08 885.44,319.00 888.16,319.00 C890.16,319.00 890.13,319.11 887.70,321.02 C886.29,322.13 884.99,324.04 884.81,325.27 C884.51,327.33 884.42,327.35 883.72,325.61 ZM 613.21 315.78 C613.03,306.61 613.22,305.15 614.50,305.64 C616.14,306.27 616.58,309.00 615.04,309.00 C614.51,309.00 613.93,312.94 613.74,317.75 L 613.41 326.50 L 613.21 315.78 ZM 264.28 323.47 C248.36,320.07 238.56,311.30 233.08,295.53 C226.84,277.63 236.33,256.04 254.04,247.81 C261.35,244.41 265.50,243.69 267.04,245.54 C268.04,246.76 267.81,247.00 265.66,247.00 C256.24,247.00 243.24,256.70 237.77,267.81 C234.72,274.01 234.50,275.15 234.53,284.48 C234.56,293.73 234.81,294.97 237.72,300.59 C241.74,308.38 250.17,316.17 257.54,318.93 C261.58,320.44 265.42,321.00 271.79,321.00 C279.30,321.00 281.33,320.60 286.57,318.13 C297.28,313.06 304.19,305.08 307.41,294.07 C311.32,280.69 306.78,265.16 296.23,255.90 C291.67,251.89 281.40,247.00 277.54,247.00 C274.92,247.00 274.74,246.83 276.05,245.52 C277.94,243.63 283.00,244.87 291.32,249.27 C301.16,254.48 307.42,263.27 310.67,276.45 C312.08,282.15 312.14,284.11 311.10,289.76 C308.66,302.98 301.63,313.25 291.22,318.80 C286.11,321.52 281.88,322.80 272.50,324.44 C271.40,324.64 267.70,324.20 264.28,323.47 ZM 931.32 324.14 C932.33,323.75 933.11,323.10 933.07,322.71 C933.03,322.32 933.02,320.99 933.04,319.75 C933.08,317.67 933.20,317.72 934.64,320.38 C936.37,323.58 935.37,325.02 931.50,324.91 C929.66,324.86 929.64,324.80 931.32,324.14 ZM 567.75 322.24 C566.79,322.03 566.00,321.44 566.00,320.93 C566.00,319.65 568.73,319.76 569.54,321.07 C570.38,322.43 569.93,322.73 567.75,322.24 ZM 523.04 313.45 C525.04,311.04 529.52,308.09 533.69,306.44 L 537.50 304.94 L 535.14 306.97 C533.84,308.09 532.19,309.00 531.47,309.00 C530.76,309.00 528.90,310.35 527.34,312.00 C524.35,315.17 520.55,316.45 523.04,313.45 ZM 592.58 312.36 C591.57,309.71 592.88,309.44 595.25,311.81 L 597.44 314.00 L 595.33 314.00 C594.17,314.00 592.93,313.26 592.58,312.36 ZM 771.57 309.12 C775.54,306.70 779.00,305.62 779.00,306.80 C779.00,307.69 771.47,311.00 769.47,311.00 C768.93,310.99 769.88,310.15 771.57,309.12 ZM 867.93 309.20 C871.12,306.96 876.00,304.91 876.00,305.80 C876.00,306.65 867.92,311.03 866.50,310.95 C865.95,310.92 866.59,310.13 867.93,309.20 ZM 547.64 304.50 C547.22,303.41 547.76,303.00 549.60,303.00 C551.86,303.00 551.98,303.17 550.64,304.50 C549.82,305.33 548.93,306.00 548.68,306.00 C548.42,306.00 547.95,305.33 547.64,304.50 ZM 568.21 304.46 C567.11,303.21 567.45,303.00 570.58,303.00 C573.72,303.00 574.07,303.21 573.00,304.50 C571.45,306.37 569.88,306.36 568.21,304.46 ZM 805.21 304.46 C804.12,303.23 804.31,303.00 806.43,303.00 C808.25,303.00 808.78,303.41 808.36,304.50 C807.65,306.36 806.87,306.35 805.21,304.46 ZM 905.21 304.46 C904.11,303.22 904.38,303.00 907.03,303.00 C909.80,303.00 909.98,303.17 908.64,304.50 C906.84,306.30 906.83,306.30 905.21,304.46 ZM 641.00 282.14 C641.00,281.13 654.12,274.79 654.80,275.47 C655.11,275.78 654.93,276.47 654.39,277.01 C653.00,278.40 641.00,283.00 641.00,282.14 ZM 710.00 282.30 C710.00,281.33 723.00,274.67 723.64,275.31 C724.56,276.23 722.82,278.59 721.12,278.72 C719.62,278.83 714.60,280.80 710.75,282.78 C710.34,282.99 710.00,282.78 710.00,282.30 ZM 325.51 277.37 C324.62,276.48 324.11,275.15 324.39,274.43 C325.00,272.84 321.03,262.43 317.54,256.48 C314.13,250.66 304.45,241.21 297.86,237.27 C294.89,235.49 289.32,233.31 285.48,232.43 C281.64,231.55 277.38,230.33 276.00,229.72 L 273.50 228.62 L 276.00 228.21 C279.35,227.65 288.35,229.74 294.50,232.49 C310.80,239.78 323.57,256.14 326.79,273.84 C327.30,276.68 327.60,279.00 327.43,279.00 C327.27,279.00 326.41,278.27 325.51,277.37 ZM 382.00 204.00 C382.00,155.28 381.68,134.00 380.94,134.00 C380.26,134.00 379.95,130.93 380.08,125.41 C380.24,119.08 379.91,116.38 378.83,115.16 C378.03,114.25 371.57,108.10 364.47,101.50 C357.37,94.90 347.36,85.54 342.23,80.70 C335.16,74.04 332.43,72.05 330.98,72.51 C329.15,73.09 324.93,73.54 313.00,74.43 C309.98,74.66 304.21,75.12 300.20,75.44 C296.18,75.77 292.16,75.63 291.26,75.13 C290.14,74.50 292.74,73.99 299.57,73.50 C305.03,73.10 314.90,72.19 321.50,71.47 C331.32,70.40 333.86,70.40 335.50,71.46 C337.43,72.71 367.07,100.14 377.75,110.57 L 383.00 115.70 L 383.00 194.85 C383.00,238.38 382.77,274.00 382.50,274.00 C382.23,274.00 382.00,242.50 382.00,204.00 ZM 591.17 267.08 C593.98,264.87 596.00,264.39 596.00,265.94 C596.00,267.12 595.25,267.54 591.52,268.44 L 588.53 269.16 L 591.17 267.08 ZM 485.14 231.68 C485.02,198.95 485.17,195.02 486.50,196.36 C487.77,197.63 488.00,202.87 488.00,230.93 C488.00,250.66 487.62,264.00 487.07,264.00 C486.56,264.00 485.94,265.01 485.71,266.25 C485.47,267.49 485.21,251.93 485.14,231.68 ZM 675.25 266.50 C674.35,265.48 674.00,259.98 674.00,246.66 C674.00,231.51 674.27,228.02 675.50,227.00 C676.83,225.90 677.00,228.22 677.00,246.88 C677.00,258.49 676.89,267.98 676.75,267.96 C676.61,267.94 675.94,267.29 675.25,266.50 ZM 769.25 266.50 C767.33,264.33 767.54,244.32 769.50,242.36 C770.83,241.02 771.00,242.37 771.00,254.43 C771.00,261.89 770.89,267.98 770.75,267.96 C770.61,267.94 769.94,267.29 769.25,266.50 ZM 872.25 266.50 C870.28,264.27 870.50,232.36 872.50,230.36 C873.83,229.02 874.00,231.03 874.00,248.43 C874.00,259.19 873.89,267.98 873.75,267.96 C873.61,267.94 872.94,267.29 872.25,266.50 ZM 556.70 265.66 C556.42,264.92 556.59,263.68 557.08,262.91 C557.62,262.04 557.98,261.95 557.98,262.67 C557.99,263.31 558.27,264.55 558.61,265.42 C558.94,266.29 558.76,267.00 558.21,267.00 C557.66,267.00 556.98,266.40 556.70,265.66 ZM 647.67 266.33 C647.30,265.97 647.05,263.60 647.11,261.08 L 647.22 256.50 L 648.06 260.77 C648.52,263.11 649.17,265.47 649.51,266.02 C650.19,267.12 648.71,267.37 647.67,266.33 ZM 918.68 264.89 C918.32,263.52 917.68,263.05 916.82,263.55 C915.79,264.13 915.76,264.01 916.68,263.01 C918.13,261.45 921.00,262.38 921.00,264.41 C921.00,266.80 919.27,267.16 918.68,264.89 ZM 571.00 256.93 C571.00,254.01 571.09,253.94 572.74,255.60 C574.00,256.86 574.14,257.45 573.23,257.76 C572.55,257.98 572.24,258.58 572.55,259.09 C572.86,259.59 572.64,260.00 572.06,260.00 C571.48,260.00 571.00,258.62 571.00,256.93 ZM 588.21 258.39 C587.13,257.22 587.56,257.00 590.96,257.00 C593.88,257.00 595.00,257.41 595.00,258.50 C595.00,260.31 592.37,260.51 591.66,258.75 C591.29,257.83 590.93,257.80 590.33,258.64 C589.72,259.47 589.15,259.40 588.21,258.39 ZM 741.00 257.37 C741.00,255.70 743.18,249.64 744.29,248.23 C745.87,246.20 746.11,247.39 744.85,251.09 C743.56,254.87 741.00,259.05 741.00,257.37 ZM 884.08 253.32 C884.12,251.22 884.41,250.18 884.73,251.00 C885.04,251.82 885.76,252.80 886.31,253.16 C886.94,253.57 886.69,254.45 885.66,255.48 C884.11,257.03 884.01,256.88 884.08,253.32 ZM 929.25 255.50 C927.33,253.32 927.53,232.32 929.50,230.36 C930.83,229.02 931.00,230.42 931.00,242.93 C931.00,250.67 930.89,256.98 930.75,256.96 C930.61,256.94 929.94,256.29 929.25,255.50 ZM 613.67 253.33 C612.32,247.92 614.78,245.54 623.27,244.03 C628.00,243.19 626.85,244.28 621.37,245.84 C616.37,247.26 615.27,248.46 614.81,253.00 L 614.46 256.50 L 613.67 253.33 ZM 522.93 254.75 C522.14,252.12 522.31,250.10 523.33,249.70 C524.26,249.35 524.50,250.03 524.20,252.10 C523.84,254.52 523.23,255.79 522.93,254.75 ZM 633.14 247.64 C633.00,242.92 632.93,242.80 630.38,243.44 C628.06,244.02 627.93,243.93 629.24,242.62 C630.74,241.12 633.32,240.99 634.68,242.34 C635.83,243.50 636.17,248.00 635.10,248.00 C634.57,248.00 633.94,249.01 633.71,250.25 C633.47,251.49 633.21,250.31 633.14,247.64 ZM 897.41 249.42 C897.55,248.42 898.31,247.25 899.09,246.80 C901.05,245.69 906.48,243.79 906.60,244.18 C906.65,244.36 907.41,243.90 908.29,243.17 C909.34,242.30 910.45,242.15 911.50,242.74 C912.71,243.41 911.80,243.93 907.82,244.85 C904.78,245.55 901.39,247.17 899.84,248.66 C897.61,250.79 897.19,250.92 897.41,249.42 ZM 534.01 243.86 C535.96,241.89 540.14,240.85 541.86,241.91 C542.78,242.48 542.05,242.96 539.53,243.43 C537.51,243.81 535.10,244.40 534.18,244.75 C532.68,245.32 532.66,245.22 534.01,243.86 ZM 605.37 242.42 C606.94,241.03 608.48,240.14 608.78,240.44 C609.65,241.32 605.84,245.00 604.10,244.97 C602.96,244.95 603.32,244.21 605.37,242.42 ZM 889.00 242.53 C889.00,242.26 890.35,241.35 892.00,240.50 C895.34,238.77 895.79,239.07 893.43,241.43 C891.98,242.88 889.00,243.62 889.00,242.53 ZM 517.55 241.07 C517.23,240.56 517.91,239.85 519.06,239.48 C521.90,238.58 522.65,239.58 520.15,240.92 C518.93,241.57 517.89,241.63 517.55,241.07 ZM 433.15 239.31 C434.41,237.81 437.00,237.55 437.00,238.93 C437.00,239.44 438.01,240.07 439.25,240.32 C440.49,240.58 439.38,240.75 436.78,240.71 C433.00,240.65 432.28,240.37 433.15,239.31 ZM 555.25 240.34 C553.43,239.60 553.64,232.35 555.50,231.64 C556.71,231.17 557.00,232.03 557.00,236.03 C557.00,238.76 556.89,240.96 556.75,240.92 C556.61,240.88 555.94,240.62 555.25,240.34 ZM 610.00 240.00 C610.00,239.45 610.41,239.00 610.92,239.00 C611.42,239.00 612.66,238.69 613.67,238.31 C615.28,237.71 615.34,237.83 614.13,239.31 C612.63,241.16 610.00,241.59 610.00,240.00 ZM 705.00 236.15 C705.00,235.14 705.84,233.55 706.86,232.63 C708.65,231.00 708.68,231.07 707.61,234.47 C706.43,238.25 705.00,239.18 705.00,236.15 ZM 809.04 231.86 C809.53,230.14 810.67,227.92 811.55,226.94 C813.37,224.94 822.23,222.49 824.51,223.37 C827.70,224.59 825.76,225.68 821.18,225.24 C816.74,224.82 816.16,225.03 813.68,227.97 C812.21,229.72 811.00,232.02 811.00,233.08 C811.00,234.13 810.36,235.00 809.57,235.00 C808.44,235.00 808.33,234.34 809.04,231.86 ZM 841.05 232.25 C843.26,226.14 844.31,224.97 848.18,224.36 C850.28,224.02 852.00,223.41 852.00,223.01 C852.00,222.61 853.13,222.49 854.52,222.76 C857.72,223.37 861.46,228.44 860.44,230.79 C859.77,232.32 859.64,232.29 859.24,230.50 C858.44,226.92 855.89,225.00 851.93,225.00 C848.97,225.00 847.63,225.65 845.59,228.08 C844.16,229.77 843.00,232.02 843.00,233.08 C843.00,234.13 842.34,235.00 841.52,235.00 C840.34,235.00 840.25,234.46 841.05,232.25 ZM 436.00 229.94 C436.00,229.36 435.64,229.10 435.20,229.38 C434.76,229.65 433.75,229.45 432.95,228.95 C431.98,228.33 433.59,228.03 437.82,228.02 C443.44,228.00 443.98,228.17 442.64,229.50 C440.93,231.21 436.00,231.54 436.00,229.94 ZM 521.63 229.53 C521.97,228.64 522.67,228.06 523.20,228.23 C524.70,228.73 524.27,230.47 522.56,230.82 C521.49,231.05 521.20,230.64 521.63,229.53 ZM 542.05 228.64 C540.96,225.76 539.24,225.03 533.17,224.89 L 528.50 224.78 L 533.30 223.86 C537.47,223.06 538.49,223.21 541.05,225.04 C542.67,226.19 544.00,228.01 544.00,229.07 C544.00,231.69 543.14,231.50 542.05,228.64 ZM 613.62 229.44 C613.28,228.56 613.45,228.16 614.01,228.51 C614.56,228.84 615.00,228.42 615.00,227.56 C615.00,226.70 615.34,226.10 615.75,226.22 C616.16,226.34 617.62,225.72 619.00,224.84 C622.13,222.84 628.61,222.61 631.18,224.42 C632.89,225.61 632.31,225.71 626.59,225.26 C620.27,224.75 619.96,224.83 617.13,227.86 C614.79,230.36 614.09,230.68 613.62,229.44 ZM 895.00 230.54 C895.00,229.35 899.94,225.64 903.99,223.79 C908.08,221.91 908.84,221.85 912.49,223.11 C915.41,224.12 916.59,225.13 916.83,226.83 L 917.16 229.16 L 915.08 227.08 C913.54,225.54 911.73,225.00 908.09,225.00 C903.86,225.00 902.83,225.42 900.65,228.00 C898.53,230.53 895.00,232.11 895.00,230.54 ZM 469.84 229.50 C468.84,228.50 470.18,224.14 471.67,223.57 C472.79,223.14 472.97,223.53 472.44,225.26 C471.44,228.54 470.46,230.13 469.84,229.50 ZM 603.75 229.31 C601.86,228.82 601.32,227.00 603.06,227.00 C603.64,227.00 603.80,226.48 603.40,225.85 C602.96,225.13 603.13,224.96 603.85,225.40 C604.48,225.80 605.00,226.73 605.00,227.48 C605.00,228.22 605.56,229.06 606.25,229.34 C607.78,229.96 606.15,229.94 603.75,229.31 ZM 644.58 224.79 C641.50,219.44 637.95,217.01 632.50,216.52 C631.95,216.47 630.60,215.85 629.50,215.15 C627.77,214.04 628.10,213.95 632.00,214.48 C638.62,215.37 643.23,218.08 645.33,222.31 C647.69,227.06 647.07,229.11 644.58,224.79 ZM 775.00 226.91 C775.00,225.65 779.65,224.29 782.55,224.72 C785.09,225.09 785.80,224.73 786.80,222.54 C788.42,218.99 788.31,217.00 786.50,217.00 C785.67,217.00 785.00,216.55 785.00,216.00 C785.00,215.45 783.99,214.95 782.75,214.88 C781.04,214.80 780.93,214.66 782.26,214.31 C783.23,214.06 785.60,214.37 787.55,215.02 C791.35,216.27 791.31,215.87 788.51,224.00 C787.30,227.49 787.28,227.50 781.15,227.50 C777.77,227.50 775.00,227.23 775.00,226.91 ZM 551.77 222.33 C548.60,218.15 549.18,215.68 552.52,219.15 C554.91,221.62 556.72,226.03 555.32,225.96 C554.87,225.94 553.27,224.31 551.77,222.33 ZM 593.25 225.34 C592.56,225.06 592.00,223.30 592.00,221.42 C592.00,218.49 591.66,218.00 589.62,218.00 C588.31,218.00 586.68,217.32 586.00,216.50 C584.92,215.20 585.44,215.00 589.88,215.00 L 595.00 215.00 L 595.00 220.50 C595.00,223.52 594.89,225.96 594.75,225.92 C594.61,225.88 593.94,225.62 593.25,225.34 ZM 768.00 220.57 C768.00,218.29 767.60,218.00 764.43,218.00 C762.46,218.00 760.18,217.32 759.36,216.50 C758.02,215.17 758.53,215.00 763.93,215.00 L 770.00 215.00 L 770.00 218.12 C770.00,220.88 770.19,221.09 771.62,219.90 C773.02,218.74 773.18,218.82 772.86,220.53 C772.64,221.66 771.52,222.64 770.24,222.82 C768.42,223.08 768.00,222.66 768.00,220.57 ZM 806.41 220.50 C805.85,218.26 805.28,218.00 800.89,218.00 C797.21,218.00 796.00,217.63 796.00,216.50 C796.00,215.32 797.39,215.00 802.50,215.00 L 809.00 215.00 L 809.00 218.62 C809.00,221.75 809.21,222.07 810.52,220.98 C811.80,219.92 811.94,219.99 811.42,221.36 C810.43,223.93 807.13,223.37 806.41,220.50 ZM 838.87 221.25 C837.66,219.70 837.68,219.64 839.10,220.75 C840.42,221.78 841.03,221.63 842.60,219.89 C844.69,217.58 848.17,215.61 852.00,214.58 C854.01,214.03 853.81,214.35 850.96,216.20 C849.02,217.47 846.43,219.51 845.21,220.75 C842.55,223.45 840.71,223.60 838.87,221.25 ZM 606.00 221.10 C606.00,220.02 610.51,216.69 613.39,215.64 C614.99,215.06 615.09,215.19 614.03,216.47 C613.34,217.30 612.42,217.76 611.99,217.49 C611.56,217.23 610.96,217.65 610.66,218.44 C609.99,220.20 606.00,222.48 606.00,221.10 ZM 727.00 216.81 C722.06,214.22 721.86,213.99 725.00,214.58 C728.49,215.24 736.00,218.61 736.00,219.52 C736.00,220.66 732.09,219.49 727.00,216.81 ZM 813.56 219.10 C812.92,218.06 816.59,215.80 821.00,214.53 C823.39,213.85 823.41,213.88 821.50,215.25 C816.19,219.08 814.16,220.06 813.56,219.10 ZM 891.56 218.90 C892.44,217.47 898.00,214.84 898.00,215.85 C898.00,216.35 897.44,217.20 896.75,217.73 C895.02,219.09 890.87,220.02 891.56,218.90 ZM 519.00 218.16 C519.00,217.02 523.01,215.28 527.58,214.42 C530.92,213.79 531.19,213.88 529.93,215.23 C529.15,216.07 527.94,216.53 527.25,216.26 C526.55,216.00 524.88,216.50 523.53,217.39 C520.83,219.15 519.00,219.47 519.00,218.16 ZM 706.04 217.04 C707.98,216.01 711.32,214.84 713.46,214.44 C716.93,213.79 717.20,213.88 715.92,215.26 C715.14,216.10 714.33,216.64 714.12,216.44 C713.92,216.24 712.17,216.74 710.25,217.54 C708.33,218.34 705.80,218.98 704.63,218.96 C702.93,218.92 703.22,218.53 706.04,217.04 ZM 830.50 216.53 C826.04,213.78 827.18,213.21 832.60,215.48 C834.55,216.29 835.86,217.42 835.51,217.98 C834.72,219.27 835.16,219.40 830.50,216.53 ZM 657.21 216.46 C656.11,215.21 656.42,215.00 659.38,215.00 C661.28,215.00 663.06,214.44 663.34,213.75 C663.67,212.92 663.87,213.02 663.92,214.05 C664.10,217.59 659.63,219.20 657.21,216.46 ZM 675.65 216.17 C673.57,213.87 673.54,210.58 675.57,207.14 C677.78,203.41 685.00,200.23 685.00,202.99 C685.00,203.53 685.90,203.21 687.00,202.27 C688.10,201.33 689.00,199.68 689.00,198.61 C689.00,197.54 689.28,196.95 689.62,197.29 C689.96,197.63 689.94,199.50 689.57,201.45 C688.92,204.92 688.81,205.00 684.15,205.00 C678.41,205.00 677.00,206.22 677.00,211.20 L 677.00 215.00 L 681.97 215.00 C685.97,215.00 686.83,215.29 686.36,216.50 C685.50,218.74 677.76,218.50 675.65,216.17 ZM 776.44 215.53 C778.79,213.68 780.32,213.55 779.76,215.25 C779.53,215.94 778.25,216.63 776.92,216.78 C774.58,217.05 774.56,217.01 776.44,215.53 ZM 456.19 211.93 C455.48,210.79 453.51,209.28 451.82,208.57 C450.13,207.86 449.14,207.03 449.62,206.74 C451.32,205.70 457.32,209.45 457.66,211.75 C458.07,214.53 457.83,214.56 456.19,211.93 ZM 663.03 204.90 C663.01,204.58 663.68,202.94 664.52,201.26 C666.18,197.92 668.18,195.95 670.20,195.64 C670.92,195.53 672.17,195.09 673.00,194.65 C673.83,194.21 673.15,195.00 671.50,196.41 C669.85,197.81 667.27,200.43 665.78,202.23 C664.28,204.03 663.04,205.23 663.03,204.90 ZM 574.53 202.68 C581.81,197.80 584.00,196.83 584.00,198.47 C584.00,199.42 582.22,200.90 579.75,202.03 C574.74,204.30 571.50,204.70 574.53,202.68 ZM 466.35 202.01 C464.08,201.09 462.47,199.19 463.28,198.38 C463.55,198.12 465.06,199.03 466.63,200.42 C469.72,203.13 469.68,203.35 466.35,202.01 ZM 459.66 197.55 C459.29,196.58 459.58,196.29 460.55,196.66 C462.13,197.26 462.54,199.00 461.11,199.00 C460.62,199.00 459.96,198.35 459.66,197.55 ZM 158.10 196.62 C157.00,195.30 156.95,194.41 157.85,192.42 C158.48,191.04 159.00,189.03 159.00,187.95 C159.00,186.88 159.45,186.00 160.00,186.00 C161.14,186.00 161.20,188.73 160.19,194.40 C159.57,197.91 159.36,198.13 158.10,196.62 ZM 447.21 196.46 C446.10,195.20 446.55,195.00 450.43,195.00 C454.03,195.00 454.82,195.30 454.36,196.50 C453.63,198.41 448.91,198.38 447.21,196.46 ZM 138.50 190.75 C138.89,187.31 139.61,184.07 140.10,183.55 C141.34,182.24 141.48,185.56 140.50,193.50 C140.09,196.88 140.03,197.00 138.90,197.00 C138.15,197.00 138.02,195.05 138.50,190.75 ZM 225.00 190.35 C224.18,190.05 219.23,188.30 214.00,186.47 C208.77,184.64 195.64,179.96 184.81,176.07 C173.98,172.18 164.68,169.00 164.15,169.00 C163.61,169.00 162.85,172.45 162.45,176.68 C161.80,183.63 161.60,184.17 160.31,182.43 C159.48,181.31 159.12,179.45 159.46,178.00 C159.77,176.62 160.18,174.60 160.36,173.50 C161.66,165.60 162.68,165.46 178.20,171.11 C184.42,173.37 197.02,177.84 206.22,181.05 C215.41,184.27 223.85,187.38 224.96,187.98 C228.17,189.70 231.75,187.22 252.23,169.11 C270.70,152.77 271.10,152.49 276.63,151.77 C287.59,150.35 293.00,144.74 293.00,134.79 C293.00,129.19 292.77,128.65 288.64,124.27 C284.57,119.96 283.87,119.62 278.39,119.23 C273.10,118.86 272.08,119.12 268.42,121.79 C264.16,124.90 261.01,130.14 260.99,134.15 C260.98,135.44 260.71,137.49 260.38,138.71 C259.71,141.20 230.41,167.51 226.75,168.91 C224.88,169.62 220.68,168.44 206.94,163.38 C183.24,154.65 182.80,154.44 183.18,151.73 C183.45,149.86 186.39,148.31 201.67,142.00 C211.66,137.88 222.01,133.64 224.67,132.60 C228.42,131.12 233.30,126.96 246.50,113.99 C264.18,96.61 265.73,95.58 275.00,95.01 C287.04,94.27 298.09,93.18 301.23,92.43 C304.25,91.70 309.00,92.58 309.00,93.86 C309.00,94.31 299.21,95.50 287.25,96.52 L 265.50 98.36 L 248.50 115.56 L 231.50 132.76 L 208.25 142.09 C195.46,147.22 185.00,151.72 185.00,152.09 C185.00,152.46 185.79,153.01 186.75,153.30 C187.71,153.60 196.57,156.82 206.42,160.46 C216.28,164.10 224.93,166.86 225.65,166.58 C226.37,166.31 233.94,159.90 242.48,152.34 C256.98,139.51 258.00,138.38 258.02,135.05 C258.09,124.34 268.64,114.88 278.97,116.27 C288.75,117.58 295.00,123.97 295.79,133.45 C296.37,140.51 294.71,145.13 290.06,149.33 C286.29,152.73 277.74,155.61 274.77,154.47 C274.06,154.19 264.37,162.02 253.10,171.98 C241.89,181.89 232.22,190.01 231.61,190.01 C231.00,190.02 229.60,190.22 228.50,190.46 C227.40,190.70 225.82,190.64 225.00,190.35 ZM 140.04 180.50 C139.99,176.44 144.02,148.84 144.90,147.19 C146.86,143.53 150.62,141.71 184.50,127.98 L 219.50 113.81 L 237.98 95.40 C255.87,77.59 256.59,77.00 260.48,77.03 C264.23,77.06 264.37,77.16 262.56,78.53 C261.49,79.34 259.70,80.00 258.57,80.00 C257.25,80.00 250.12,86.38 238.51,97.96 L 220.50 115.93 L 200.50 124.03 C189.50,128.48 174.23,134.65 166.57,137.74 C158.91,140.83 151.33,144.52 149.73,145.95 C146.77,148.60 145.33,152.92 144.37,162.00 C144.11,164.48 143.76,167.62 143.60,169.00 C143.44,170.38 143.24,173.10 143.16,175.06 C143.07,177.02 142.34,179.49 141.53,180.56 C140.08,182.47 140.06,182.47 140.04,180.50 ZM 311.00 93.11 C311.00,90.76 318.15,90.28 320.00,92.50 C321.08,93.80 320.56,94.00 316.12,94.00 C313.31,94.00 311.00,93.60 311.00,93.11 ZM 267.50 77.99 C267.11,77.37 266.96,76.71 267.15,76.52 C267.34,76.34 271.77,75.89 277.00,75.53 C285.34,74.96 286.28,75.06 284.73,76.32 C283.76,77.10 280.85,77.79 278.27,77.84 C275.68,77.89 272.36,78.20 270.88,78.53 C269.34,78.86 267.89,78.64 267.50,77.99 Z" fill="rgba(255, 255, 255, 1)"/>
    </g>
</svg>